<svg id="Layer_1" height="512" viewBox="0 0 66 66" width="512" xmlns="http://www.w3.org/2000/svg"><g><path d="m63.7 52c.5.1 1-.2 1.2-.7.1-.5-.2-1-.7-1.2-1.4-.3-4.3-3.2-8.5-3.6-1.5-.1-3 .3-4.5.9-4.2 1.4-5 1.2-8.4-.5-4.3-2.1-5.5-2.2-9.8-.7-1.5.5-2.9 1-4.1.9-2.6-.2-5.2-2.4-8-2.9 1.2-9.3 3.4-16.1 5.3-20.3.2 1 .2 1.7 1 2 0 .1-.4.4-.2.9.6 1.9 1.5 3.8 2.5 5.6.2.3.5.5.9.5-.2.3-.2.7 0 1 1.1 1.7 7.3 9.9 8.6 7.5 1.1-1.9-.7-11.9-1.2-14.3 1.1.4 1.6.7 2.1.3.1.3.3.5.6.6 2.2.7 6.7 1.7 7.4 1.7.8 0 1.2-.9.8-1.5-2.9-4.3-5.6-7.6-8.3-9.9 1.8.2 1.8.3 2.2.1.4.4 4 .5 5.6 1.5 1 .6 2-.7 1.2-1.5l-.1-.1c-6.2-7.3-14.5-11-21.4-4.4.1-7.9-4.7-13.6-16.7-12.8-.4 0-.8.3-.9.7s0 .8.4 1.1c0 0 2.8 1.9 6 4.5-3.6-.7-7.6-.5-11.2.1-.3 0-.6.3-.7.6s0 .7.2 1c0 .1 1.4 1.5 4 3.2.6.4 1.1 0 1.5-.1-.5 1.2 1.6 1.9 3.1 2.5-5.1 1.7-9.9 5.1-12.3 7.8-.2.3-.3.7-.2 1 .2.3.5.5.9.6.1 0 2.4.3 5.7.4.3 0 .6-.1.8-.3.2.2.4.4.8.4 1.8 0 6.2.2 6.7-.4.4.3.6.3 3.1-.1-3.2 5.9-5.6 13.3-7.2 22-1.5.2-3.4-.1-5.2-1.3-.9-.7-2-1.4-4.4-1.5-.5 0-1 .4-1 .9s.4 1 .9 1c1.8.1 2.5.6 3.4 1.2 1.6 1.1 3.5 1.9 6 1.7-1.4 8.3-1.5 14.8-1.5 14.9 0 .3.1.6.4.8 2.6 2 6.5 1.6 9.3.1.3-.2.5-.5.5-.9-.3-5.8-.2-11.4.4-16.7 2.5.5 5 2.7 8.1 2.9 3.2.2 6.4-2.1 9-1.9 2.7.2 5.6 2.9 8.7 3.1 3.4.3 6.8-2 9.1-1.7 3.7.1 6.1 2.9 8.1 3.3zm-18.5-35c-.4-.1-.9-.2-1.4-.2l-.4-1.3c.7.5 1.3 1 1.8 1.5zm-13 16.4c.5-.9 1.4-1.5.9-2.3-.2-.3-.6-.5-1-.4l-1.4.2c-.7-1.3-1.4-2.8-1.9-4.2l1.1-1.6c.5-.7-.1-1.7-1-1.5l-1 .2c-.4-1.8-.6-3.6-.6-5.5h.1c2.1 0 6 1 7.8 7.3.8 2.8 1.9 10.2 1.9 13.5-1.2-1.1-3.1-3.1-4.9-5.7zm13.5-6c-1.1-.2-2.6-.6-4.2-1l-.3-1.7c-.1-.4-.4-.7-.8-.8s-.8.1-1 .5l-.7 1.2c-.6-.2-1.1-.4-1.7-.7-1.2-4-3.5-7.5-7.6-8.3 6-2 12.7 5.8 16.3 10.8zm-3.5-12.8c-.8.2-.7 1.2-.9 1.9-1.2-.1-2.5-.2-3.9-.3-2.2-1.3-4.7-2.2-7.2-1.8 3.8-3 7.9-2.4 12 .2zm-28-11.7c6.6.2 11.3 2.9 11.6 9.6-1-1.5-2.4-2.7-3.9-3.5-.1 0-2.1-1.9-7.7-6.1zm-1.3 9.3 1.1-1.4c.3-.3.3-.8 0-1.2-.7-1-1.8 0-4.4.7-.6-.4-1.2-.8-1.7-1.2 6.1-.7 14.3-.2 16.7 5.5-2.2-1.2-5.4-1.2-7.9-.8-1.3-.4-2.5-1-3.8-1.6zm4.6 8.2c-.4-.2-.9-.1-1.2.2l-1.6 1.9c-1.4.1-3.1.1-4.7.1l-.2-1.1c-.1-.4-.4-.7-.8-.8s-.8.1-1 .4l-.9 1.4c-1.1 0-2.1-.1-2.9-.2 5.5-4.8 16.8-9.8 21-4.6v2c-1.7 1.6-5.2 2.3-7.6 2.5l.2-.8c.3-.4.1-.8-.3-1zm-5.6 42c.4-12.2 3.5-28.3 9.6-38.8.7-.2 2.1-.6 2.9-1-4.2 9.4-7.1 22.8-6.3 39.7-1.9.8-4.4 1.2-6.2.1z"/><path d="m52.4 56.7c-2.6 0-2.7-2.2-6.1-2.2-3.3 0-3.6 2.2-6.1 2.2-2.6 0-2.7-2.2-6.1-2.2s-3.5 2.2-6.1 2.2-2.7-2.2-6.1-2.2c-1.3 0-1.3 1.9 0 1.9 2.6 0 2.7 2.2 6.1 2.2s3.5-2.2 6.1-2.2c1.2 0 1.8.4 2.5.9 2.4 1.7 4.8 1.8 7.2 0 3.8-2.8 4.7 1.3 8.6 1.3 1.8 0 2.8-.7 3.6-1.3.7-.5 1.3-.9 2.5-.9.5 0 1-.4 1-1 0-.5-.4-1-1-1-3.3.1-3.5 2.3-6.1 2.3z"/></g></svg>