<svg id="Layer_1" enable-background="new 0 0 500 500" height="512" viewBox="0 0 500 500" width="512" xmlns="http://www.w3.org/2000/svg"><g fill="rgb(0,0,0)"><g display="none"><path d="m392.6 295.3c-22.1-10.1-51.4-15.6-82.3-15.6s-60.1 5.5-82.3 15.6c-24.7 11.2-38.3 27.1-38.3 44.7v10c0 5.5 4.5 10 10 10h221c5.5 0 10-4.5 10-10v-10c.1-17.6-13.5-33.5-38.1-44.7zm-182.8 44.7c0-19 43-40.2 100.5-40.2s100.4 21.2 100.4 40.2z" display="inline"/><path d="m420.8 450.5c-5.5 0-10 4.5-10 10h-201c0-5.5-4.5-10-10-10s-10 4.5-10 10v10c0 5.5 4.5 10 10 10h221c5.5 0 10-4.5 10-10v-10c0-5.5-4.5-10-10-10z" display="inline"/><path d="m420.8 420.4h-221c-5.5 0-10 4.5-10 10s4.5 10 10 10h221c5.5 0 10-4.5 10-10s-4.5-10-10-10z" display="inline"/><path d="m250.9 397.5c10.2-9.7 20.1-9.7 30.3 0 17.9 17 40.2 17 58.1 0 10.2-9.7 20.1-9.7 30.3 0 9 8.5 19 12.8 29 12.8s20.1-4.3 29-12.8c4-3.8 4.2-10.2.3-14.2-3.8-4-10.2-4.2-14.2-.3-10.2 9.7-20.1 9.7-30.3 0-17.9-17-40.2-17-58.1 0-10.2 9.7-20.1 9.7-30.4 0-17.9-17-40.2-17-58.1 0-10.2 9.7-20.1 9.7-30.4 0-4-3.8-10.4-3.7-14.2.3s-3.7 10.4.3 14.2c18.2 17.1 40.5 17.1 58.4 0z" display="inline"/><path d="m159.6 460.6h-30.9l-18.6-251.2h159.3l-3 46.6c-.4 5.5 3.9 10.3 9.4 10.7h.6c5.3 0 9.7-4.1 10-9.4l3-47.9h10.7c5.5 0 10-4.5 10-10v-40.2c0-5.5-4.5-10-10-10h-10v-10c0-16.6-13.5-30.1-30.1-30.1h-72.8l-18-63c-1-3.4-3.6-6-7-6.9l-69.4-19.5c-5.3-1.5-10.9 1.7-12.4 7s1.7 10.9 7 12.4l64.1 17.8 14.9 52.1h-47c-16.6 0-30.1 13.5-30.1 30.1v10h-10c-5.5 0-10 4.5-10 10v40.2c0 5.5 4.5 10 10 10h10.7l19.4 261.9c.4 5.2 4.8 9.3 10 9.3h40.2c5.5 0 10-4.5 10-10 0-5.4-4.5-9.9-10-9.9zm-70.3-291.4h80.4c5.5 0 10-4.5 10-10s-4.5-10-10-10h-60.3v-10c0-5.5 4.5-10 10-10h60.2 80.4c5.5 0 10 4.5 10 10v10h-20c-5.5 0-10 4.5-10 10s4.5 10 10 10h40.2v20.1h-200.9z" display="inline"/></g><g><path d="m459.7 380.3c1.3-5.4.9-13.2-5.9-23-7.2-10.3-20.6-21-34-25.2-.2-7.1-2.8-12.5-5.5-16.2-14.2-19.6-49.7-21.1-60.3-21.1-22.6 0-47.9 2.8-66.7 23-30.3-.2-51.4 15-59.4 21.8-4.5 3.9-8.1 10.1-10.7 17.7-25 13.5-46.8 45.4-47.7 70.9-.5 13.3 2.3 22.9 8.5 29.3 6.9 7.1 15.7 7.9 21.7 7.9 13.1 0 28.6-4.1 36.8-6.6 5.6 4.1 12.6 6.6 21.7 6.6 10.5 0 23.8-4.6 32.7-8.5 7.8 5.6 16.9 8.5 26.7 8.5h2.5 2.9c9.2 0 22.6-.5 32.2-6.5 9.5 6.2 19.2 6.5 35 6.5 10.1 0 16.7-3.4 21.5-8.3 1.9.4 4.1 1 6.1 1.4 12.3 3 27.9 6.8 41.5 6.8 13 0 24.2-3.5 29.1-14.5 10.2-22.7-10.3-55.4-28.7-70.5zm-267 63.4c-1-1-3.2-4.5-2.9-14.7.5-13.6 10.5-31.2 23.2-43.5-.3 11.7 1 24.5 4.1 37.1 1.5 6.4 3.5 13.1 6.4 19.2-7.1 1.8-16.1 3.7-23.6 3.7-3.8 0-6-.6-7.2-1.8zm53.8-2.8c-.1-.1-.1-.1-.2-.2-3.5-3.8-6.8-10.7-9.7-22.8-5.1-21.1-4.1-39.1-1.3-50.6.1-.3.1-.5.2-.8 1.6-5.9 3.6-9.9 5.6-11.6 4.8-4.2 16-12.3 32-15.6-10 21.4-10.2 43.2-10.4 53.9v1.9c-.1 9 3.3 29.6 13.7 46.2-6.6 2.4-13.5 4.2-18.2 4.2-3.9 0-7.9-.6-11.7-4.6zm74 4.6c-.9 0-1.8 0-2.6 0-7.4 0-13.6-2.6-19-8.1-12.3-12.5-16.1-35.5-16-42v-2c.1-12.5.4-38.6 16.8-59.1 11.2-14 26.5-19.4 54.4-19.4 20.1 0 38.6 5.4 44 12.8 1.3 1.7 2.5 4.4.9 9.5-2.3 7.1-9.3 15.9-16.1 24.4-5.1 6.5-10.5 13.2-14.7 20.1-12.9 21.3-18.5 36.1-21.4 56.6-.9 6.8-14.1 7.2-26.3 7.2zm46-3.1c.1-.4.2-.8.2-1.2 2.5-17.7 7.2-30 18.7-48.9 3.6-5.9 8.5-12.1 13.2-18.1 5.9-7.4 11.8-14.9 15.9-22.6 7.9 2.7 17.6 9.8 22.8 17.2 2.9 4.2 3 6.5 2.9 6.9-2.4 6.3-6.5 11.3-11.8 17.6-4.8 5.7-10.2 12.2-15.7 21.3-3.5 5.8-6 11.4-8.2 16.2-2 4.5-3.5 7.7-5 9.9-.1.1-.1.2-.2.3-2.4 3.6-4.6 4.5-8.9 4.5-14 0-19.3-.3-23.9-3.1zm103.6.5c-.4.8-3.9 3-14.8 2.2-10.7-.7-23.3-3.8-32.6-6 0-.1.1-.1.1-.2 2-4.5 4.1-9.2 7-14 4.7-7.8 9.4-13.4 14-18.8 2.1-2.6 4.2-5.1 6.2-7.7 12.8 12.1 24.6 34.3 20.1 44.5z"/><path d="m185.1 149.5c-3.7 4.1-3.4 10.5.7 14.2 1.9 1.8 4.3 2.6 6.8 2.6 2.7 0 5.4-1.1 7.4-3.3 29.4-32.3 12.4-53.9 1.2-68.1-11.5-14.7-17.9-22.7 2.7-43.3 3.9-3.9 3.9-10.3 0-14.2s-10.3-3.9-14.2 0c-33.2 33.2-15.8 55.3-4.3 70 11.4 14.4 17.7 22.4-.3 42.1z"/><path d="m252.5 150c-3.4 4.4-2.7 10.7 1.7 14.1 1.8 1.5 4 2.2 6.2 2.2 3 0 5.9-1.3 7.9-3.8 16.4-20.8 6.6-35.1.8-43.7-5.5-8.1-7.3-10.8 1-20.4 3.6-4.2 3.2-10.5-1-14.2-4.2-3.6-10.5-3.2-14.2 1-18.5 21.4-8.5 36.1-2.5 44.9 5.4 7.8 7.4 10.7.1 19.9z"/><path d="m126.4 150c-3.4 4.4-2.7 10.7 1.7 14.1 1.8 1.5 4 2.2 6.2 2.2 3 0 5.9-1.3 7.9-3.8 16.4-20.8 6.6-35.1.8-43.7-5.5-8.1-7.3-10.8 1-20.4 3.6-4.2 3.2-10.5-1-14.2-4.2-3.6-10.5-3.2-14.2 1-18.5 21.4-8.5 36.1-2.5 44.9 5.4 7.8 7.4 10.7.1 19.9z"/><path d="m154.6 385.2h-15.1c0-.5 0-1.1-.1-1.6-1.4-8.9-6.5-16.2-12.3-24.6-13.7-19.8-36.2-52.5-37.7-144.6h220.9c-.4 21.6-1.9 41.3-4.6 58.7-.9 5.5 2.9 10.6 8.4 11.5 5.5.8 10.6-2.9 11.5-8.4 3.3-21.1 4.9-45.3 4.9-71.9 0-5.5-4.5-10-10-10h-241.2c-5.5 0-10 4.5-10 10 0 14.3.5 27.4 1.3 39.4-9.6-4.7-19.2-5.6-24.7-5.6-10.6 0-19.8 4-26.6 11.5-7.4 8.1-11.3 20-10.2 31 2.8 28.8 25.8 38.4 48 47.7 13.8 5.8 28.1 11.8 41.1 22.4 4.4 7.9 8.7 14.2 12.5 19.6 4.2 6.2 7.4 10.8 8.6 14.8h-70.2c-5.5 0-10 4.5-10 10s4.5 10 10 10h105.5c5.5 0 10-4.5 10-10 .1-5.4-4.4-9.9-10-9.9zm-89.8-75.3c-22.4-9.4-34.2-15-35.8-31.2-.4-4.4 1-11 5.1-15.5 3-3.3 6.9-4.9 11.8-4.9 7.7 0 21.4 2.2 28.1 16.5 2.6 17.3 6.1 31.6 10.1 43.6-6.7-3.2-13.2-5.9-19.3-8.5z"/></g><g display="none"><path d="m450.7 122.1c-.7-5.5-5.7-9.4-11.2-8.7l-80.4 10c-3.9.5-7.2 3.2-8.4 7l-24.4 79.3h-96.3c-5.5 0-10 4.5-10 10v75.5 165.8c0 11.1 9 20.1 20.1 20.1h120.6c11.1 0 20.1-9 20.1-20.1v-241.1c0-5.5-4.5-10-10-10h-23.2l20.6-67.2 73.9-9.2c5.4-.8 9.3-5.9 8.6-11.4zm-130.4 107.8-16.3 52.9c-24.2-6.6-44.8-7.2-64-1.8v-51h80.3zm40.3 0v57.2c-.6.2-1.1.4-1.7.5-5.1 1.7-9.6 3.2-15.7 1.4-5.3-1.5-10.9 1.5-12.4 6.9-1.5 5.3 1.5 10.9 6.9 12.4 4 1.2 7.7 1.6 11 1.6 4.6 0 8.5-.8 11.9-1.8v152.9h-120.5v-159c17.2-6.1 35.3-6.2 58.1-.1l-39.5 128.6c-1.6 5.3 1.4 10.9 6.7 12.6 1 .3 2 .4 3 .4 4.3 0 8.3-2.8 9.6-7.1l63.4-206.6h19.2z" display="inline"/><path d="m199.9 461h-120.6c-5.5 0-10-4.5-10-10v-60.3h100.5c5.5 0 10-4.5 10-10v-130.7c0-5.5-4.5-10-10-10h-100.5v-50.2c0-24.1 16.7-40.4 32.8-56.2 14.1-13.8 27.4-26.9 27.4-44.2v-10h70.3v10c0 17.4 13.3 30.4 27.4 44.2 16.1 15.8 32.8 32.1 32.8 56.2 0 5.5 4.5 10 10 10s10-4.5 10-10c0-32.5-21.6-53.6-38.9-70.6-11.5-11.2-21.4-21-21.4-29.9v-10c5.5 0 10-4.5 10-10v-30.3c0-11.1-9-20.1-20.1-20.1h-90.4c-11.1 0-20.1 9-20.1 20.1v30.1c0 5.5 4.5 10 10 10v10c0 8.9-9.9 18.6-21.4 29.9-17.3 17-38.9 38-38.9 70.6v261.2c0 16.6 13.5 30.1 30.1 30.1h120.6c5.5 0 10-4.5 10-10 .4-5.4-4.1-9.9-9.6-9.9zm-80.4-422h90.4v20.1h-90.4zm40.2 221v110.5h-90.4v-110.5z" display="inline"/></g><g display="none"><path d="m471 89.3h-201.5l-11.5-30.6 214.4-29.8c5.5-.8 9.3-5.8 8.6-11.3-.8-5.5-5.8-9.3-11.3-8.6l-218.9 30.4-1.5-3.9c-1.9-5.2-7.7-7.8-12.9-5.9-5.1 1.9-7.7 7.5-6 12.6l-17.8 2.5-3.4-9.2c-1.9-5.2-7.7-7.8-12.9-5.9s-7.8 7.7-5.9 12.9l1.9 5-17.9 2.5-5.4-14.5c-1.9-5.2-7.7-7.8-12.9-5.9s-7.8 7.7-5.9 12.9l3.8 10.3-46 6.4c-5.5.8-9.3 5.8-8.6 11.3.7 5 5 8.7 9.9 8.7.5 0 .9 0 1.4-.1l50.5-7 6.4 17.2h-58.3c-5.5 0-10 4.5-10 10s4.5 10 10 10h65.9l5.1 13.6c1.5 4 5.3 6.5 9.4 6.5 1.2 0 2.4-.2 3.5-.6 5.2-1.9 7.8-7.7 5.9-12.9l-2.4-6.5h18.7l5.1 13.6c1.5 4 5.3 6.5 9.4 6.5 1.2 0 2.4-.2 3.5-.6 5.2-1.9 7.8-7.7 5.9-12.9l-2.4-6.5h18.7l5.1 13.6c1.5 4 5.3 6.5 9.4 6.5 1.2 0 2.4-.2 3.5-.6 5.2-1.9 7.8-7.7 5.9-12.9l-2.4-6.5h194c5.5 0 10-4.5 10-10 0-5.8-4.5-10.3-10.1-10.3zm-281.9 0-7.5-20 17.8-2.5 8.4 22.5zm40.2 0-9.5-25.3 17.8-2.5 10.4 27.8z" display="inline"/><path d="m221 244.6c1.8 3.4 5.3 5.4 8.9 5.4 1.6 0 3.2-.4 4.6-1.1 4.9-2.6 6.8-8.6 4.2-13.6-12.8-24.6-7.1-30.7 1.6-40.1s20.7-22.3 8.8-49.7c-2.2-5.1-8.1-7.4-13.2-5.2s-7.4 8.1-5.2 13.2c6.7 15.4 2.8 19.6-5 28-12.7 13.7-22.6 28.8-4.7 63.1z" display="inline"/><path d="m180.8 244.6c1.8 3.4 5.3 5.4 8.9 5.4 1.6 0 3.2-.4 4.6-1.1 4.9-2.6 6.8-8.6 4.2-13.6-12.8-24.6-7.1-30.7 1.6-40.1s20.7-22.3 8.8-49.7c-2.2-5.1-8.1-7.4-13.2-5.2s-7.4 8.1-5.2 13.2c6.7 15.4 2.8 19.6-5 28-12.7 13.7-22.6 28.8-4.7 63.1z" display="inline"/><path d="m348.6 264.3c-1.9-2.6-4.9-4.2-8.2-4.2h-150.7-110.5c-3.2 0-6.3 1.6-8.2 4.2l-50.2 70.3c-2.2 3.1-2.5 7.1-.8 10.4s5.2 5.4 8.9 5.4h51.6l18.9 132c.7 4.9 4.9 8.6 9.9 8.6h80.4 130.6c5 0 9.2-3.7 9.9-8.6l15.7-110c.8-5.5-3-10.6-8.5-11.4s-10.6 3-11.4 8.5l-14.4 101.5h-111.8v-169.6l32 44.8c1.9 2.6 4.9 4.2 8.2 4.2h150.7c3.8 0 7.2-2.1 8.9-5.4s1.4-7.4-.8-10.4zm-264.2 15.8h85.8l-35.9 50.2h-85.8zm16.4 70.4h38.6c3.2 0 6.3-1.6 8.2-4.2l32-44.8v169.5h-61.6zm144.3-20.1-35.9-50.2h126l35.9 50.2z" display="inline"/></g><g display="none"><path d="m158.8 114.3c9.3 2.8 15.9 5.8 22.4 21.5 1.9 4.5 5.4 13.9 7.6 19.8-6.3 8.7-10.8 20.3-13.5 34.7-1 5.5 2.6 10.7 8 11.7.6.1 1.2.2 1.9.2 4.7 0 9-3.4 9.9-8.2 2.8-14.9 7.4-23.7 12.1-29.1.3-.3.6-.6.9-1 5.4-5.7 10.8-6.8 13.4-7.4 3.9-.8 7.5-1.4 10.9-1.7.9.1 1.9 0 2.8-.1 12.1-.2 21.7 4.7 35.2 20.4 3.6 4.2 10 4.7 14.2 1 4.2-3.6 4.7-10 1-14.2-15.3-17.7-28.8-26.1-46-27.1-3-6.3-7.7-16.8-10-24.6-2.2-7.3 3.1-21.1 5.9-28.5.8-2.1 1.5-4 2-5.6 3.8-11.6-1-22.9-12.1-28.7-11.3-5.9-24.7-4-31.2 4.5-2.5 3.3-3.7 6.6-4.7 9.3-1.2 3.4-1.4 3.5-2.1 3.8-.9-.1-3-1.4-4.4-2.3-5.1-3.1-13.7-8.2-24.6-3.5-11.2 4.9-19.5 18.9-18.7 31.8.5 11.3 7.6 19.8 19.1 23.3zm7.5-36.5c1.1-.5 1.7-.5 6.3 2.3 5 3 12.6 7.5 22.1 3.7 9.4-3.7 12.1-11.3 13.7-15.8.5-1.5 1-2.9 1.5-3.7 1-.5 4.6-.4 7.2 1.6 1.6 1.3 1.7 2.4 1.2 4-.4 1.1-1 2.7-1.7 4.6-3.9 10.3-10.5 27.6-6.4 41.4 1.9 6.5 5.2 14.3 8 20.8-.4.1-.7.1-1.1.2-4.4.9-8.5 2.4-12.3 4.4-1.8-4.9-3.8-10.1-5.1-13.2-9.8-23.7-22.7-29.3-35.2-33.1-4.4-1.3-4.9-3.3-5-5.1-.2-4.9 4-10.9 6.8-12.1z" display="inline"/><path d="m491.1 360.6c0-13.1-15.2-19.9-26.6-23.8-5.2-1.8-11 1-12.8 6.3-1.8 5.2 1 11 6.3 12.8 5.6 1.9 8.9 3.6 10.9 4.8-4.9 2.9-18.1 8.6-51.7 14.1 12.3-16.8 24.1-38.1 24.4-53.6.5-25.7-11.1-51.2-33.6-73.7-35.3-35.3-93.9-59.3-142.4-58.4-27 .5-42.5 8.9-61.5 20.6-4.7 2.9-6.2 9.1-3.3 13.8s9.1 6.2 13.8 3.3c19.6-12.1 31-17.2 51.3-17.6 42.8-.8 96.6 21.3 127.8 52.5 12.9 12.9 28.2 33.7 27.7 59.1-.3 13.1-18.6 42.6-33.7 58-39.5 4.5-87.8 7-137.8 7-37 0-73.1-1.4-105.4-3.9-3.9-2.9-7.6-6.1-11-9.6-21.9-21.9-34.4-68.6-28-104.2 1.1-6.1 3.1-13.2 6.4-19.3l.3-.6c3.1-5.4 7.3-10.1 13.1-12.8 27.5-12.5 57.5-.4 97 39.2 16.5 16.5 26.8 37.2 29 58.3.6 5.5 5.5 9.5 11 8.9s9.5-5.5 8.9-11c-2.7-25.6-15.1-50.6-34.8-70.4-22.9-22.9-55.4-50.3-91.4-49.7-5.1-6.3-15.1-19.1-20.6-28.9-5-8.8-2.5-27.2-1.2-37.1.4-2.8.7-5.1.9-7.1 1.1-13.7-7-24.9-20.8-28.5-14-3.6-28.4 1.9-33.3 12.9-1.9 4.3-2.4 8.4-2.8 11.8-.5 4.9-.8 5.6-2.4 6.8-1.1.8-3 .4-7.9-1.2-7-2.2-17.6-5.6-28.3 2.4-11.1 8.3-16.8 26.6-12.6 40.7 3.6 12.2 13.6 19.7 27.4 20.6 12.2.8 21.7 2.7 34.4 20.3 3.6 5.1 10.1 15 13.9 20.9-2.6 6-4.7 12.8-6 20.3-7 38.3 4.6 86.1 26.7 114.3-5.4-.6-10.7-1.3-15.8-2-44.2-6.1-60.2-12.9-65.7-16.2 3.9-2.4 13.2-6.5 34.5-10.9 5.4-1.1 8.9-6.4 7.8-11.9-1.1-5.4-6.4-8.9-11.9-7.8-36.9 7.7-52.6 16.8-52.6 30.6 0 9.6 8 15.6 16.5 19.7 17.1 17 38.1 35.7 40.5 37.9 19.1 18.7 93 37.9 184.2 37.9s165.1-19.2 184.2-37.9c2.4-2.2 23.4-20.9 40.5-37.9 8.5-4.2 16.5-10.2 16.5-19.8zm-446.2-177.7c-6.8-.4-8.6-3.6-9.4-6.3-1.9-6.5 1.3-15.8 5.4-18.9 2.1-1.5 3.7-1.4 10.2.6 6.4 2 16 5.1 25.4-1.5 9.3-6.5 10.3-15.2 11-21 .3-2.3.5-4.3 1.1-5.7.5-1.2 4.9-3 10-1.7 6.3 1.6 5.9 5.8 5.8 7.4-.1 1.5-.4 3.6-.7 6.1-1.8 13.1-4.7 35 3.7 49.7 4.2 7.4 10.5 16.1 15.8 23-1.9.7-3.9 1.5-5.8 2.3-4.9 2.2-9.2 5.2-13.1 9-3.4-5.2-7.2-10.9-9.8-14.5-17.8-24.5-34.3-27.6-49.6-28.5zm375.3 220.8c-11.2 11.2-72.7 32.2-170.2 32.2s-158.9-20.9-170.2-32.2c-.1-.1-.3-.3-.4-.4s-5.1-4.5-12.1-11c5.6 1.1 11.5 2.1 17.8 3 44.1 6.7 102.7 10.4 164.9 10.4s120.8-3.7 164.9-10.4c6.3-1 12.3-2 17.8-3-7 6.4-12 10.9-12.1 11s-.3.3-.4.4z" display="inline"/></g><g display="none"><path d="m450.9 277.3h-401.8c-5.5 0-10 4.5-10 10 0 47.8 18.3 92.3 53 128.7 19.2 20.1 38.3 32.6 47.5 37.9v4.1c0 5.5 4.5 10 10 10h200.9c5.5 0 10-4.5 10-10v-4c9.2-5.4 28.3-17.8 47.5-37.9 34.7-36.4 53-80.9 53-128.7 0-5.6-4.5-10.1-10.1-10.1zm-57 124.4c-23.6 25-47.7 37.3-47.9 37.4-3.4 1.7-5.6 5.2-5.6 9h-180.8c0-3.8-2.1-7.3-5.6-9-.9-.5-88.8-45.5-94.6-141.7h381.2c-2.3 38.9-18 74-46.7 104.3z" display="inline"/><path d="m272.1 190.5c-24.8 23.8-30.8 49.2-31.4 66.3-.2 5.5 4.1 10.2 9.7 10.4h.4c5.4 0 9.8-4.3 10-9.7.7-19.5 9.2-37.2 25.2-52.5 12.5-12 25.6-19.7 38.2-22.5 2.6 4.3 6 8.5 10.2 12.4 5.6 5.1 12.8 8.8 21.4 11.2 5.4 1.4 10.9-1.7 12.3-7.1s-1.7-10.9-7.1-12.3c-5.5-1.5-9.9-3.7-13-6.6-12-11-13.2-26.2-12.7-34.6 8.3-1.2 23.5-1.5 35.5 9.5 10.1 9.2 13.7 29.6 14.7 40.7l-16.5 20.1c-3.5 4.3-2.9 10.6 1.4 14.1 1.9 1.5 4.1 2.3 6.4 2.3 2.9 0 5.8-1.3 7.8-3.7l9.8-11.9c19.2 8.4 30.6 22.8 33 41.8.6 5.1 5 8.8 10 8.8.4 0 .8 0 1.3-.1 5.5-.7 9.4-5.7 8.7-11.2-3.1-24.3-17.1-43.6-39.8-55.2l18.8-22.8c3.5-4.3 2.9-10.6-1.4-14.1s-10.6-2.9-14.1 1.4l-8.1 9.9c-2.9-12-8.2-25.7-18.1-34.8-25.8-23.6-59.8-13-61.2-12.5-3.4 1.1-6 3.9-6.7 7.4-.2.9-2.9 13.6.4 28.7-15.6 3.9-30.9 13-45.1 26.6z" display="inline"/><path d="m186.2 151.9c-4.4 3.3-5.3 9.7-1.9 14.1 2 2.6 5 4 8 4 2.1 0 4.2-.7 6.1-2 7.3-5.5 13.5-12.7 19.6-19.6 12.5-14.2 20.7-22.7 31-21.2.7.1 1.3.2 2 .3.2 0 .4.1.6.1h.3c10.6 2.3 17.9 8.5 21.5 28.7 1 5.5 6.2 9.1 11.7 8.1s9.1-6.2 8.1-11.7c-2.6-14.6-8.4-33.7-28.3-42.1l6.3-35c1-5.5-2.6-10.7-8.1-11.7s-10.7 2.6-11.7 8.1l-6.2 34.7c-18.1.7-30.9 15.2-42.2 28.2-5.8 6.6-11.2 12.7-16.8 17z" display="inline"/><path d="m53 110.3c24.4 15.4 38.1 39.9 44 52.8-13 6.1-23.9 16-31.4 28.7-9.9 16.7-12.6 36.2-7.8 55 1 3.8 1.7 7.7 2.2 11.6.7 5.5 5.7 9.4 11.2 8.7s9.4-5.7 8.7-11.2c-.6-4.7-1.5-9.4-2.7-14.1-3.5-13.6-1.5-27.7 5.7-39.8 7.1-12.1 18.5-20.6 32.1-24.1 28-7.2 56.7 9.7 63.9 37.8 5.2 20.4 14.9 34.9 24.5 47.6 2 2.6 5 4 8 4 2.1 0 4.3-.7 6.1-2.1 4.4-3.4 5.3-9.7 1.9-14.1-8.4-11-16.7-23.4-21-40.4-9.4-36.6-45.4-59.6-82-53.6-1.6-3.8-3.9-8.5-6.9-13.9 31.2-1.9 50.9-17.1 62.4-30.7 19.8-23.5 26.9-56.4 22.1-73.4-1-3.5-3.8-6.3-7.4-7.1s-7.3.4-9.8 3.1c-7.9 8.9-21.3 14.4-45.6 24.3-3.3 1.4-6.8 2.8-10.5 4.3-22.4 9.3-34.6 26-39 43.5-5.3-5-11.3-9.8-18-14-4.7-3-10.9-1.6-13.9 3.1-2.9 4.9-1.5 11.1 3.2 14zm75.4-27.9c3.7-1.5 7.2-2.9 10.5-4.3 14.8-6 26.2-10.7 35.4-15.9-2.2 11.4-7.6 25.5-17.6 37.4-13.9 16.5-32.9 24.5-56.6 23.8-.4-14.8 6.7-32.1 28.3-41z" display="inline"/></g><g display="none"><path d="m424 280.1h-150.7c-16.6 0-30.1 13.5-30.1 30.1v10c0 5.5 4.5 10 10 10s10-4.5 10-10v-10c0-5.5 4.5-10 10-10h150.8c5.5 0 10 4.5 10 10v140.6c0 5.5-4.5 10-10 10h-120.5c-5.5 0-10 4.5-10 10s4.5 10 10 10h120.5c16.6 0 30.1-13.5 30.1-30.1v-140.4c0-16.6-13.5-30.2-30.1-30.2z" display="inline"/><path d="m477.5 33c-7.9-9.1-19.7-14.1-33.4-14.1h-20.1-190.9c-3.9 0-7.4 2.3-9.1 5.8s-1.1 7.7 1.4 10.7l29 34.9c3.5 59.1 18 172 49.7 197.6 1.8 1.4 4 2.2 6.3 2.2h66.3c2.3 0 4.5-.8 6.3-2.2 15.2-12.3 27.9-44.1 37.6-94.7 7.9-41 12.7-89.3 13.3-134.2h10.1c4.5 0 12.8.9 18.2 7.1 4.9 5.7 6.5 14.8 4.8 26.5l-12.9 85.4c-.8 5.5 2.9 10.6 8.4 11.4.5.1 1 .1 1.5.1 4.9 0 9.2-3.6 9.9-8.6l13.1-85.2c3.3-22.4-3.3-35.5-9.5-42.7zm-104.7 217h-58.4c-17.9-19.8-35.6-100.1-40.1-184.1-.1-2.2-.9-4.2-2.3-5.9l-17.4-21h159.3c-1.3 92.2-20 188.3-41.1 211z" display="inline"/><path d="m333.6 109.4h20.1c5.5 0 10-4.5 10-10s-4.5-10-10-10h-20.1c-5.5 0-10 4.5-10 10s4.4 10 10 10z" display="inline"/><path d="m323.5 149.5h40.2c5.5 0 10-4.5 10-10s-4.5-10-10-10h-40.2c-5.5 0-10 4.5-10 10s4.5 10 10 10z" display="inline"/><path d="m353.7 169.6h-20.1c-5.5 0-10 4.5-10 10s4.5 10 10 10h20.1c5.5 0 10-4.5 10-10s-4.5-10-10-10z" display="inline"/><path d="m84.4 364.7c1.7 3.7 5.3 5.9 9.1 5.9 1.4 0 2.8-.3 4.2-.9 5-2.3 7.3-8.3 5-13.3-5.5-11.9-17.2-45.2-19.5-61.1-3.1-21.1 2.3-39 15-50.4 12.2-10.8 29.6-14.3 48-9.5 8.7 2.3 14.4 3.2 20.3 3.2 5.9 0 11.6-.9 20.3-3.2 18.8-5 38.5-1.1 48.9 9.7 3.7 3.8 6.7 7.6 9.1 11.4 3 4.7 9.2 6.1 13.9 3.1s6.1-9.2 3.1-13.9c-3.2-5-7-9.7-11.6-14.5-15.5-16.1-42.4-22-68.4-15.2-1.9.5-3.6.9-5.1 1.3v-.7c0-35.1 25.2-48.6 26.4-49.2 4.9-2.5 6.9-8.5 4.5-13.4-2.5-5-8.5-7-13.5-4.5-.7.4-9.1 4.6-17.7 14.1-4-9.9-10.3-21-20.2-28.6-22.1-16.8-54.5-9.7-55.9-9.4-4.7 1.1-8 5.4-7.8 10.2.1 1.4 1.7 34.5 23.9 51.3 12.5 9.5 29.3 11.6 41.5 11.6h.6c-1.2 5.5-1.8 11.4-1.8 18v.7c-1.6-.3-3.2-.8-5.1-1.3-25-6.6-49.2-1.5-66.5 13.9-17.7 15.8-25.5 40.6-21.5 68.2 2.4 18.5 14.9 53.6 20.8 66.5zm43.9-193.9c-8.9-6.8-12.9-18.8-14.7-27.1 8.5-.5 21.2.2 30.2 6.9 9 6.8 13.9 19 16.4 27.7-10 .4-23.4-.9-31.9-7.5z" display="inline"/><path d="m118 245.4c-12.3 7.1-20.5 18.4-23.1 31.8-1.1 5.4 2.5 10.7 8 11.8.6.1 1.3.2 1.9.2 4.7 0 8.9-3.3 9.9-8.1 2-10.2 9.2-15.8 13.4-18.2 4.8-2.8 6.4-8.9 3.7-13.7-2.8-5-9-6.6-13.8-3.8z" display="inline"/><path d="m168.3 410.7c-1.1-5.4-6.3-9-11.8-8-5.4 1.1-9 6.3-8 11.8l2.4 12.7c.9 4.8 5.1 8.1 9.9 8.1.6 0 1.3-.1 1.9-.2 5.4-1.1 9-6.3 8-11.8z" display="inline"/><path d="m361.2 432.7c2.1 0 3.9-.1 5.3-.4 2.4-.5 4.6-1.8 6.1-3.8 8.2-10.7 11.6-32.7 7.9-51.1-3.6-18.4-15.2-37.5-26.8-44.4-2.1-1.2-4.6-1.7-7-1.2-8.9 1.7-29 13.6-60.6 33.7-11.8-16.5-30.5-24.8-51.3-21-26.7 4.8-74.3 16.8-120.4 32.9-54.1 18.8-86.9 36.4-97.7 52.2-5 7.3-5.1 13.6-4.3 17.7 3.6 18.1 29.9 22.8 38.6 24.3 14.2 2.5 32.7 3.8 55 3.8 4 0 8.1 0 12.3-.1 29.9-.6 62.4-3.2 90.4-6.5.3 0 .6-.1.9-.1 18.9-2.2 35.7-4.8 48.1-7.3 13.8-2.7 24.9-9.9 32.2-20.9 3.4-5.1 5.9-10.9 7.4-17.1 30.5 5.7 52.4 9.3 63.9 9.3zm-14.5-79.8c5.5 5.6 11.8 16.9 14.1 28.5 2.5 12.3.6 24.6-2.2 31.3-12.3-.6-42.8-6.3-59.7-9.5-.2-3.3-.7-6.7-1.4-10.1-.6-3.3-1.5-6.5-2.5-9.5 14-8.9 40.6-25.6 51.7-30.7zm-73.4 76.4c-4.3 6.5-10.8 10.6-19.3 12.3-10 2-23.1 4-37.8 5.9l-1.2-6.1c-1.1-5.4-6.3-9-11.8-8-5.4 1.1-9 6.3-8 11.8l.9 4.6c-24.2 2.6-51.1 4.6-76.2 5.1-6.5.1-12.5.2-18.1.1l-2.7-13.8c-1.1-5.4-6.3-9-11.8-8-5.4 1.1-9 6.3-8 11.8l1.8 9.4c-36.7-2.1-48.1-8.5-49-11.2-.2-3.7 13.7-19.5 77.1-42.8 30.8-11.3 65.3-21.4 93.6-28.4l2.5 13.1c.9 4.8 5.1 8.1 9.9 8.1.6 0 1.3-.1 1.9-.2 5.4-1.1 9-6.3 8-11.8l-2.7-13.8c5.9-1.3 11.2-2.4 16-3.2 2.3-.4 4.4-.6 6.5-.6 19.5 0 29.9 17.3 33 33.3v.1c2.5 12.4.9 24.1-4.6 32.3z" display="inline"/></g><g display="none"><path d="m405.7 315.3h-381.7c-5.5 0-10 4.5-10 10 0 68.8 79.2 123 100.5 136.3v4.4c0 5.5 4.5 10 10 10h180.8c5.5 0 10-4.5 10-10v-4.4c21.2-13.3 100.5-67.5 100.5-136.3 0-5.5-4.5-10-10.1-10zm-105.5 131.9c-3.1 1.8-5 5.1-5 8.7h-160.7c0-3.6-1.9-6.9-5-8.7-.9-.5-86-50.3-94.7-111.8h360.2c-8.7 61.6-93.9 111.3-94.8 111.8z" display="inline"/><path d="m476 104.3h-201.5l-11.5-30.6 214.4-29.7c5.5-.8 9.3-5.8 8.6-11.3-.8-5.5-5.8-9.3-11.3-8.6l-218.9 30.3-1.5-3.9c-1.9-5.2-7.7-7.8-12.9-5.9-5.1 1.9-7.7 7.5-6 12.6l-17.8 2.5-3.4-9.2c-1.9-5.2-7.7-7.8-12.9-5.9s-7.8 7.7-5.9 12.9l1.9 5-17.8 2.5-5.5-14.4c-1.9-5.2-7.7-7.8-12.9-5.9s-7.8 7.7-5.9 12.9l3.8 10.3-46 6.4c-5.5.8-9.3 5.8-8.6 11.3.7 5 5 8.7 9.9 8.7.5 0 .9 0 1.4-.1l50.5-7 6.4 17.2h-58.3c-5.5 0-10 4.5-10 10s4.5 10 10 10h65.9l5.1 13.6c1.5 4 5.3 6.5 9.4 6.5 1.2 0 2.4-.2 3.5-.6 5.2-1.9 7.8-7.7 5.9-12.9l-2.4-6.5h18.7l5.1 13.6c1.5 4 5.3 6.5 9.4 6.5 1.2 0 2.4-.2 3.5-.6 5.2-1.9 7.8-7.7 5.9-12.9l-2.4-6.5h18.7l5.1 13.6c1.5 4 5.3 6.5 9.4 6.5 1.2 0 2.4-.2 3.5-.6 5.2-1.9 7.8-7.7 5.9-12.9l-2.4-6.5h194c5.5 0 10-4.5 10-10s-4.5-10.4-10.1-10.4zm-281.8 0-7.5-20 17.8-2.5 8.4 22.5zm40.2 0-9.5-25.3 17.8-2.5 10.4 27.8z" display="inline"/><path d="m218.8 244.9c-.2.6-.4 1.3-.5 2-3.5 15.7-3.2 33.3 7.8 53.2 1.8 3.3 5.3 5.2 8.8 5.2 1.6 0 3.3-.4 4.9-1.3 4.9-2.7 6.6-8.8 3.9-13.7-6.2-11.1-8-21-7.2-30.5 23.6 5.9 42.3 23.4 49.6 39.4 1.7 3.7 5.3 5.9 9.2 5.9 1.4 0 2.8-.3 4.1-.9 5.1-2.3 7.3-8.2 5-13.3-9.1-20.1-32.2-43.1-63.2-50.7 1.9-5 4.1-10.1 6.4-15.4 8.3-19 17.7-40.5 6.6-64.6-2.3-5-8.3-7.2-13.3-4.9s-7.2 8.3-4.9 13.3c7.3 15.9 1.1 30.1-6.7 48.1-3.9 8.7-8 18-10.5 28.2z" display="inline"/><path d="m186 300.1c1.8 3.3 5.3 5.2 8.8 5.2 1.6 0 3.3-.4 4.9-1.3 4.9-2.7 6.6-8.8 3.9-13.7-13.9-25-5.7-43.7 3.8-65.4 8.3-19 17.7-40.5 6.6-64.6-2.3-5-8.3-7.2-13.3-4.9s-7.2 8.3-4.9 13.3c7.3 15.9 1.1 30.1-6.7 48.1-9.8 22.1-21.8 49.5-3.1 83.3z" display="inline"/><path d="m64.6 304.1c1.5.8 3 1.1 4.6 1.1 3.6 0 7.2-2 8.9-5.4 11.1-21.6 33.4-46.9 76-44.8 5.5.3 10.3-4 10.5-9.5.3-5.5-4-10.3-9.5-10.5-41.5-2.1-75.2 17.7-94.8 55.7-2.6 4.8-.7 10.9 4.3 13.4z" display="inline"/><path d="m156 270.8c-18.7-2.7-37.6 4.5-48 18.3-3.4 4.4-2.5 10.7 1.9 14.1 1.8 1.4 3.9 2 6.1 2 3 0 6-1.4 8-4 4.6-6.1 15.1-12.6 29.2-10.6 5.5.8 10.6-3 11.4-8.5.7-5.4-3.1-10.5-8.6-11.3z" display="inline"/><path d="m357.4 301.1c2 2.7 5 4.2 8.2 4.2 2 0 4.1-.6 5.9-1.9 4.5-3.2 5.5-9.5 2.3-14-17.8-24.8-41.6-40.5-67-44.3-5.5-.8-10.6 3-11.4 8.5s3 10.6 8.5 11.4c19.8 2.9 38.8 15.7 53.5 36.1z" display="inline"/></g><g display="none"><path d="m450.9 240h-401.8c-5.5 0-10 4.5-10 10 0 47.8 18.3 92.3 53 128.7 19.2 20.1 38.3 32.6 47.5 37.9v4.1c0 5.5 4.5 10 10 10h200.9c5.5 0 10-4.5 10-10v-4.1c9.2-5.4 28.3-17.8 47.5-37.9 34.7-36.4 53-80.9 53-128.7 0-5.5-4.5-10-10.1-10zm-57 124.4c-23.6 25-47.7 37.3-47.9 37.4-3.4 1.7-5.6 5.2-5.6 9h-180.8c0-3.8-2.1-7.3-5.6-9-.9-.5-88.8-45.5-94.6-141.7h381.2c-2.3 38.8-18 73.9-46.7 104.3z" display="inline"/><path d="m210.1 227h1c5.5-.5 9.6-5.4 9-11-.4-4.2 0-8.3 1.2-12.3 2.3-7.8 7.5-13.9 14.3-16.6 3.2-1.3 5.5-4.2 6.1-7.6s-.6-6.8-3.1-9.2c-8.1-7.3-11.2-19.8-7.9-31.1 2.2-7.4 6.9-13.3 13-16.3 3.5-1.7 9.1-3.2 15.6-.7 1 .4 2.1 1 3.2 1.7 2.9 1.7 6.4 1.9 9.5.5 3-1.4 5.2-4.3 5.7-7.6.2-1.6.5-3.1.9-4.5 2.2-7.4 6.9-13.3 13-16.3 3.5-1.7 9.1-3.2 15.6-.7 3.5 1.4 6.6 3.6 9.1 6.7 3.6 4.3 9.9 4.8 14.2 1.2s4.8-9.9 1.2-14.2c-4.7-5.6-10.7-9.9-17.2-12.5-10.4-4-21.6-3.6-31.7 1.4-9.6 4.7-17.4 13.2-21.7 23.7-8.8-2-17.9-1-26.1 3.1-11.1 5.4-19.6 15.8-23.4 28.5-4.3 14.4-2.2 29.7 5.3 41.8-6.8 5.7-11.9 13.5-14.7 22.7-1.9 6.5-2.6 13.2-2 20 .4 5.4 4.8 9.3 9.9 9.3z" display="inline"/><path d="m257.1 216.6c-1.8 5.2 1 11 6.2 12.8 1.1.4 2.2.6 3.3.6 4.2 0 8.1-2.6 9.5-6.8 16-46.3 50.2-82.9 101.8-108.7 25.6-12.8 49.4-19.7 62.9-22.9-.1 24.7-2.2 82.5-19.2 124.5-2.1 5.1.4 11 5.5 13.1s11-.4 13.1-5.5c23.7-58.5 20.7-141.3 20.5-144.8-.1-2.9-1.4-5.5-3.7-7.4-2.2-1.8-5.1-2.6-7.9-2.2-1.5.2-37.8 6.1-79.6 26.9-56 27.8-94.8 69.5-112.4 120.4z" display="inline"/><path d="m101.8 151.6c5.5.5 10.4-3.5 11-9 .8-7.9 1.9-15.1 2.9-20.6 17.4 7.6 51.5 25.9 64.8 56.1 1.7 3.8 5.3 6 9.2 6 1.3 0 2.7-.3 4-.8 5.1-2.2 7.4-8.2 5.2-13.2-21.7-49.3-84.7-70.4-87.4-71.3-2.6-.9-5.5-.6-7.9.7s-4.2 3.6-4.9 6.3c-.2.6-4 15.5-5.9 34.9-.6 5.5 3.5 10.4 9 10.9z" display="inline"/><path d="m399.4 155c-3.8-4.1-10.1-4.3-14.2-.5l-29.5 27.4-4.4 4.1-.4-10.3c-.2-5.5-4.9-9.9-10.4-9.6-5.5.2-9.9 4.9-9.6 10.4l1.1 27.6-8.9 8.3c-4.1 3.8-4.3 10.1-.5 14.2 2 2.1 4.7 3.2 7.4 3.2 2.4 0 4.9-.9 6.8-2.7l27.5-25.6 14.7 8.1c1.5.8 3.2 1.2 4.8 1.2 3.5 0 7-1.9 8.8-5.2 2.7-4.9.9-11-4-13.6l-8.9-4.9 19.2-17.9c4.1-3.8 4.3-10.1.5-14.2z" display="inline"/><path d="m69.2 229.9c5.5 0 10-4.5 10-10 0-19.7 13.5-35.7 30.1-35.7s30.1 16 30.1 35.7c0 5.5 4.5 10 10 10s10-4.5 10-10c0-30.8-22.5-55.8-50.2-55.8s-50.2 25-50.2 55.8c.1 5.5 4.6 10 10.2 10z" display="inline"/></g><g display="none"><path d="m87.9 279c-13 7.7-21.7 19.9-24.4 34.3-1 5.5 2.6 10.7 8 11.7.6.1 1.3.2 1.9.2 4.7 0 9-3.4 9.9-8.2 2.2-11.7 10.3-18 14.9-20.7 4.8-2.8 6.4-9 3.5-13.8s-9.1-6.4-13.8-3.5z" display="inline"/><path d="m129.6 248.2c-1.9-.4-4-.9-6.4-1.6-26-7-51.4-1.9-69.6 14.1-19.4 17-28.2 44.3-24.1 75 1.5 11.3 12.2 44.5 16.5 56.4 1.5 4.1 5.3 6.7 9.5 6.7 1.1 0 2.3-.2 3.4-.6 5.2-1.9 8-7.6 6.1-12.8-5.5-15.5-14.4-44.3-15.5-52.2-3.2-24.3 2.9-44.6 17.4-57.3 13.1-11.5 31.8-15.1 51.2-9.8 9.3 2.5 15.4 3.5 21.7 3.5 6.3 0 12.4-1 21.7-3.5 20.4-5.5 41.8-1.1 53.1 10.9 12.4 13.1 18.1 25.7 21.7 48 .9 5.5 6.1 9.2 11.5 8.3 5.5-.9 9.2-6.1 8.3-11.5-4.3-26.1-11.8-42.5-27-58.5-16.5-17.5-45.2-24-73-16.5-2.4.7-4.5 1.2-6.4 1.6v-2c0-11.2 2.2-20.5 5.5-28 0-.1.1-.1.1-.2 8.1-18.7 22.4-26.5 23.3-27 4.9-2.5 6.8-8.6 4.3-13.5s-8.6-6.9-13.5-4.4c-.9.5-12.9 6.8-23.5 21.1-7.3-10.4-18.9-23.2-34.2-28.7-27.9-10.1-58.5 8.2-59.8 9-4.1 2.5-5.9 7.5-4.2 12 .5 1.4 13 35.1 40.9 45.1 6 2.2 12.2 3 18.4 3 8.5 0 16.8-1.6 23.9-3.7-.7 4.8-1.2 9.8-1.2 15.2v1.9zm-34.2-35.5c-12.1-4.4-20.5-16.6-25-24.9 8.6-3.6 22.6-7.7 34.5-3.4 12.2 4.4 21.6 16.5 27 25-10.1 3.9-25 7.5-36.5 3.3z" display="inline"/><path d="m210.1 412c-1.1-5.4-6.4-8.9-11.9-7.8-5.4 1.1-8.9 6.4-7.8 11.9l3.1 15.4c1 4.8 5.2 8 9.8 8 .7 0 1.3-.1 2-.2 5.4-1.1 8.9-6.4 7.8-11.9z" display="inline"/><path d="m483.2 371.5c-4.6-22-18.9-44.6-33.3-52.7-2-1.1-4.4-1.5-6.7-1.1-11.3 2.1-36.6 17.2-71 38.5-2.7 1.7-5.3 3.3-7.7 4.8-14.4-21.5-38.4-32.4-65.2-27.8-34.5 5.9-95.9 20.6-155.2 40.2-69.3 22.9-111.1 44.2-124 63.2-4.4 6.4-5.9 12.9-4.6 19.3 2.9 14.1 18.6 32.3 117.4 32.3 5.1 0 10.4 0 16-.1 64.8-1.2 139-9.3 178.8-16.8 17.5-3.3 31.4-12.1 40.3-25.5 4.5-6.7 7.5-14.4 9.2-22.6 2.8.5 5.9 1.1 9 1.7 34.7 6.7 61.4 11.6 75.4 11.6 2.3 0 4.3-.1 5.9-.4 2.4-.4 4.5-1.7 6.1-3.6 10-12.7 14.3-38.9 9.6-61zm-132 63.1c-5.9 8.9-15.1 14.6-27.3 16.9-13.7 2.6-31.5 5.2-51.7 7.6l-2-9.6c-1.1-5.4-6.4-8.9-11.9-7.8-5.4 1.1-8.9 6.4-7.8 11.9l1.6 7.8c-32.8 3.4-69.5 6-103.7 6.6-8.4.2-16.2.2-23.4.1 0-.1 0-.2-.1-.3l-3.7-18.4c-1.1-5.4-6.4-8.9-11.9-7.8-5.4 1.1-8.9 6.4-7.8 11.9l2.9 14.1c-53.6-2.6-68.5-11.8-69.4-15.9-.2-.8.4-2.3 1.5-3.9 4.7-6.9 25.2-26.2 113.7-55.4 38-12.6 77.6-23.2 109.5-30.6l3.8 18.4c1 4.8 5.2 8 9.8 8 .7 0 1.3-.1 2-.2 5.4-1.1 8.9-6.4 7.8-11.9l-3.8-18.8c8.7-1.8 16.6-3.4 23.2-4.5 3-.5 5.9-.8 8.7-.8 25.4 0 41 20.4 45.5 42.5v.1c3.4 15.4 1.4 29.6-5.5 40zm108.7-18.2c-13.6-.4-49.7-7.4-70.1-11.3-4.1-.8-8-1.5-11.6-2.2-.3-4-.9-8.1-1.7-12.3-.8-4-1.9-7.9-3.2-11.5 2.9-1.8 6.1-3.7 9.4-5.8 17.4-10.7 48.2-29.7 60.5-34.7 7.8 6.6 17.1 21.8 20.3 37 3.2 15.1.8 32-3.6 40.8z" display="inline"/><path d="m225.9 242.9c5.5 0 10-4.5 10-10v-40.2h59.6l-28.8 76.8c-1.9 5.2.7 11 5.9 12.9 1.2.4 2.4.6 3.5.6 4.1 0 7.9-2.5 9.4-6.5l65.4-174.3h25.7v70.3h-30.1c-5.5 0-10 4.5-10 10s4.5 10 10 10h30.1v130.6c0 5.5 4.5 10 10 10s10-4.5 10-10v-230.9c0-5.5-4.5-10-10-10h-28.2l15.4-41 74.3-9.3c5.5-.7 9.4-5.7 8.7-11.2s-5.7-9.4-11.2-8.7l-80.4 10c-3.7.5-6.8 2.9-8.2 6.4l-20 53.7h-111.1c-5.5 0-10 4.5-10 10v140.6c-.1 5.7 4.4 10.2 10 10.2zm103.5-140.7-26.4 70.3h-67.1v-70.3z" display="inline"/></g><g display="none"><path d="m418.4 221.1c-4.7-2.9-10.9-1.4-13.8 3.3s-1.4 10.9 3.3 13.8c11.8 7.3 18.3 15 18.3 21.9 0 23.1-72.6 55.3-190.9 55.3s-190.9-32.3-190.9-55.4 72.6-55.3 190.9-55.3c18.5 0 36.7.8 54.3 2.5 5.5.5 10.4-3.6 10.9-9.1s-3.6-10.4-9.1-10.9c-18.2-1.7-37.1-2.5-56.2-2.5-54.7 0-106.3 7-145.2 19.6-43 14-65.8 33.3-65.8 55.7 0 47.9 20.1 93.4 58.2 131.4 21.3 21.3 42.5 34.7 52.3 40.3v4.1c0 16.5 24.2 22.1 32.2 24 17.3 4 40.9 6.1 68.3 6.1s51-2.1 68.3-6.1c8-1.8 32.2-7.5 32.2-24v-4.1c9.8-5.6 31-19 52.3-40.3 38.1-38.1 58.2-83.5 58.2-131.4.1-9.9-4.8-24.7-27.8-38.9zm-44.1 155.7c-26.2 26.3-52.8 39.9-53.1 40-3.4 1.7-5.6 5.2-5.6 9v8.4c-5.1 4.2-29.5 11.7-80.4 11.7s-75.2-7.5-80.4-11.7v-8.4c0-3.8-2.1-7.3-5.6-9-.9-.5-80.1-41-100.3-119.8 10.5 7 24.2 13.3 41 18.7 38.9 12.7 90.5 19.6 145.2 19.6s106.3-7 145.2-19.6c16.9-5.5 30.7-11.8 41.2-18.8-7.1 28.8-22.9 55.5-47.2 79.9z" display="inline"/><path d="m457.2 73.5c-16.3-12-41.4-14.3-55.7 5.2-11.4 15.4-39.3 60.8-59.7 94-8.8 14.3-17 27.7-18.4 29.6-2 2.7-12.3 6.8-19.8 9.8-2.1.8-4.2 1.7-6.3 2.5-13.6 5.5-38.9 18.2-55.5 40.7-7.1 9.6-12.5 20.2-16.1 31.4-1.7 5.3 1.3 10.9 6.5 12.6 1 .3 2 .5 3 .5 4.3 0 8.2-2.7 9.6-7 2.9-9.1 7.3-17.7 13.1-25.5 14.2-19.2 37.5-30.2 46.9-34 2.1-.8 4.2-1.7 6.2-2.5 12.9-5.1 23.1-9.2 28.5-16.5 1.7-2.3 7.5-11.7 19.3-31 19-31 47.8-77.8 58.7-92.6 8.1-10.9 21.6-5.4 27.7-1 6 4.5 15.3 15.8 7.2 26.7-10.9 14.8-47.1 56.1-71.1 83.4-15 17.1-22.3 25.4-23.9 27.6-5.4 7.3-6.3 18.3-7.4 32.1-.2 2.2-.3 4.4-.5 6.6-.2 2.6-.5 5.3-1 8-.8 5.5 3 10.6 8.5 11.4s10.6-3 11.4-8.5c.5-3.1.8-6.2 1.1-9.3.2-2.3.4-4.6.6-6.8.6-8 1.5-19 3.5-21.7 1.4-1.8 11.8-13.7 22.9-26.3 25.7-29.2 60.8-69.3 72.2-84.7 14.3-19.4 4.8-42.7-11.5-54.7z" display="inline"/><path d="m156.4 149.3c-2.9 4.7-1.4 10.9 3.3 13.8 1.6 1 3.5 1.5 5.2 1.5 3.4 0 6.7-1.7 8.6-4.8 18.3-29.8 8.1-52.4 0-70.6-7.8-17.3-11-26.2-.8-38.8 3.5-4.3 2.9-10.6-1.4-14.1s-10.6-2.9-14.1 1.4c-18.6 22.7-9.4 43.2-2 59.7 7.5 16.7 13.9 31.2 1.2 51.9z" display="inline"/><path d="m216.7 149.3c-2.9 4.7-1.4 10.9 3.3 13.8 1.6 1 3.5 1.5 5.2 1.5 3.4 0 6.7-1.7 8.6-4.8 18.3-29.8 8.1-52.4 0-70.6-7.8-17.3-11-26.2-.8-38.8 3.5-4.3 2.9-10.6-1.4-14.1s-10.6-2.9-14.1 1.4c-18.6 22.7-9.4 43.2-2 59.7 7.4 16.7 13.9 31.2 1.2 51.9z" display="inline"/><path d="m277 149.3c-2.9 4.7-1.4 10.9 3.3 13.8 1.6 1 3.5 1.5 5.2 1.5 3.4 0 6.7-1.7 8.6-4.8 18.3-29.8 8.1-52.4 0-70.6-7.8-17.3-11-26.2-.8-38.8 3.5-4.3 2.9-10.6-1.4-14.1s-10.6-2.9-14.1 1.4c-18.6 22.7-9.4 43.2-2 59.7 7.4 16.7 13.9 31.2 1.2 51.9z" display="inline"/></g><g display="none"><path d="m53 185.9c16.9 13.8 37.6 20.8 60.7 20.8 6.5 0 13.1-.6 20-1.7l19.8 10.7v42.5c-1.5-.6-2.9-1.3-4-2.1-4.4-3.3-10.7-2.4-14.1 2-3.3 4.4-2.4 10.7 2 14.1 6.8 5.1 16.1 7.9 26.1 7.9s19.3-2.8 26.1-7.9c4.4-3.3 5.4-9.6 2-14.1-3.3-4.4-9.6-5.4-14.1-2-1.1.8-2.5 1.6-4 2.1v-48.5s0 0 0-.1c0-16.6 10.7-41.4 30.6-54.6 4.6-3.1 5.9-9.3 2.8-13.9s-9.3-5.9-13.9-2.8c-18.4 12.2-32.7 33.9-37.6 55.5l-9.1-5c1.7-20.6-4.5-38.5-18.2-52.3-27.9-28.2-79-32.3-104.6-28.3-2.7.4-5.1 1.9-6.7 4.2s-2.1 5.1-1.6 7.8c5.6 27.1 19.1 50.4 37.8 65.7zm60.8-35.1c9.3 9.4 13.4 20.9 12.6 35-49.9 6.3-77.8-24-88.6-58.7 23.6-.7 57.9 5.4 76 23.7z" display="inline"/><path d="m183.6 400.7c-5.5 0-10 4.5-10 10s4.5 10 10 10h10c5.5 0 10-4.5 10-10s-4.5-10-10-10z" display="inline"/><path d="m163.5 370.6h-10c-5.5 0-10 4.5-10 10s4.5 10 10 10h10c5.5 0 10-4.5 10-10 .1-5.5-4.4-10-10-10z" display="inline"/><path d="m213.8 380.6c5.5 0 10-4.5 10-10s-4.5-10-10-10h-10c-5.5 0-10 4.5-10 10s4.5 10 10 10z" display="inline"/><path d="m484.9 27.7c-.7-5.5-5.7-9.4-11.2-8.7l-80.4 10c-3.7.5-6.8 2.9-8.2 6.4l-20.1 53.9h-111.1c-5.5 0-10 4.5-10 10v75.5 45c0 5.5 4.5 10 10 10s10-4.5 10-10v-38.2c16.9-5.3 39.6-4.4 65.4 2.5l-34.7 92.4c-1.9 5.2.7 11 5.9 12.9 1.2.4 2.4.6 3.5.6 4.1 0 7.9-2.5 9.4-6.5l65.4-174.3h25.7v57.9c-2.5 1.2-5.1 2.7-7.7 4.3-9.9 5.9-16.9 9.5-24.6 5.7-5-2.5-11-.5-13.5 4.5s-.5 11 4.5 13.5c5.4 2.7 10.6 3.8 15.5 3.8 10.1 0 18.9-4.6 25.7-8.6v250.6c0 5.5-4.5 10-10 10h-120.4c-5.5 0-10 4.5-10 10s4.5 10 10 10h120.6c16.6 0 30.1-13.5 30.1-30.1v-341.5c0-5.5-4.5-10-10-10h-28.2l15.4-41 74.3-9.3c5.5-.7 9.4-5.8 8.7-11.3zm-148.4 137.6c-21.6-6-48.5-10.2-72.5-4.5v-51.4h93.5z" display="inline"/><path d="m196.2 224c-5.4-1.4-10.8 1.9-12.2 7.2-1.4 5.4 1.9 10.8 7.2 12.2 48.7 12.6 82.8 56.6 82.8 107.1 0 60.9-49.6 110.5-110.5 110.5s-110.5-49.6-110.5-110.5c0-50.4 34-94.4 82.7-107 5.4-1.4 8.6-6.9 7.2-12.2-1.4-5.4-6.9-8.6-12.2-7.2-57.6 14.9-97.8 66.9-97.8 126.4 0 72 58.6 130.6 130.6 130.6s130.6-58.6 130.6-130.6c0-59.7-40.3-111.7-97.9-126.5z" display="inline"/></g><g display="none"><path d="m435.3 301.3c-5.1-2.1-11 .3-13.1 5.4s.3 11 5.4 13.1c27.5 11.4 43.3 25 43.3 37.3 0 15-22.7 31.3-60.7 43.7-42.7 13.9-99.6 21.6-160.3 21.6s-117.5-7.5-160.2-21.4c-38-12.4-60.7-28.7-60.7-43.7 0-13.8 20-29.2 53.5-41.2 5.2-1.9 7.9-7.6 6.1-12.8-1.9-5.2-7.6-7.9-12.8-6.1-43.8 15.5-66.9 36.3-66.9 60 0 55.5 124.2 85.4 241.1 85.4s241.1-29.9 241.1-85.4c0-15-9.7-36.8-55.8-55.9z" display="inline"/><path d="m101.1 246c-.1.1-.1.2-.2.3s-.2.3-.3.4-.1.3-.2.4-.1.3-.2.4-.1.3-.2.4-.1.3-.2.4-.1.3-.1.4c0 .2-.1.3-.1.5 0 .1-.1.3-.1.4-.1.6-.2 1.3-.2 1.9v.1 120.6c0 2.8 1.2 5.4 3.2 7.3 1.9 1.7 4.3 2.7 6.9 2.7h.7l291.3-20.1c5.3-.4 9.4-4.7 9.4-10v-120.4c0-.2 0-.4 0-.6 0-.1 0-.2 0-.3 0-.5-.1-.9-.2-1.4 0-.1 0-.1-.1-.2-.1-.4-.2-.9-.4-1.3v-.1c-.2-.4-.4-.8-.6-1.2 0-.1-.1-.2-.1-.2-.2-.4-.5-.8-.8-1.1 0 0-.1-.1-.1-.1-.3-.3-.6-.6-.9-.9-.1-.1-.1-.1-.2-.2-.4-.3-.7-.6-1.1-.8 0 0-.1 0-.1-.1l-79.1-49.1c-4.7-2.9-10.9-1.5-13.8 3.2s-1.5 10.9 3.2 13.8l52.6 32.6-205.5 14.2 46.1-21.2c5-2.3 7.3-8.3 4.9-13.3-2.3-5-8.3-7.3-13.3-4.9l-96 44.1c-.1 0-.2.1-.3.1-.1.1-.3.1-.4.2s-.3.2-.4.3-.2.1-.3.2c-.2.1-.4.3-.6.4-.1 0-.1.1-.2.1-.5.4-.9.8-1.3 1.3-.1.1-.1.2-.2.2-.3.3-.4.5-.5.6zm289.5-3.6v100.4l-271.2 18.7v-100.4z" display="inline"/><path d="m219.2 114.2h.1c6.9-.1 16.4 1.1 22.7 7.3 3.8 3.7 6.2 9.2 7.3 16.1-17 4.7-29.5 20.3-29.5 38.7 0 22.2 18 40.2 40.2 40.2s40.2-18 40.2-40.2c0-18.9-13.1-34.7-30.6-39-.5-4.8-1.5-9.3-3-13.4 8.7-.2 18.5-2.1 27.1-7.6 21.3-13.8 25-43.7 25.2-45 .6-4.8-2.4-9.3-7-10.8-1.2-.4-30.1-9.3-51.4 4.5-12.4 8-18.8 21.6-22.1 31.7-5.8-1.8-12.3-2.8-19.3-2.6-5.5.1-10 4.6-9.9 10.2.1 5.5 4.5 9.9 10 9.9zm60.9 62.2c0 11.1-9 20.1-20.1 20.1s-20.1-9-20.1-20.1 9-20.1 20.1-20.1 20.1 9 20.1 20.1zm-8.6-94.5c7.4-4.8 17.6-4.9 25.4-4-2.3 7.5-6.7 16.8-14.1 21.5-7.4 4.8-17.7 4.9-25.4 4 2.3-7.4 6.7-16.7 14.1-21.5z" display="inline"/><path d="m138.2 316.9c7.8 4 16.2 6.1 24.6 6.1 10.3 0 20.7-3.1 30.3-9.1 11.3-7.2 23.7-7.9 34.9-2.2 17.5 9 37.5 7.9 54.9-3.1 11.3-7.2 23.7-7.9 34.9-2.2 17.5 9 37.5 7.9 54.9-3.1 4.7-3 6.1-9.2 3.1-13.9s-9.2-6.1-13.9-3.1c-11.3 7.2-23.7 7.9-34.9 2.2-17.5-9-37.5-7.9-54.8 3.1-11.3 7.2-23.7 7.9-34.9 2.2-17.5-9-37.5-7.9-54.9 3.1-11.3 7.2-23.7 7.9-34.9 2.2-4.9-2.5-11-.6-13.5 4.3-2.6 4.9-.7 11 4.2 13.5z" display="inline"/></g><g display="none"><path d="m149.3 314.8c1.5.8 3.2 1.2 4.8 1.2 3.6 0 7-1.9 8.8-5.3 2.6-4.9.8-11-4-13.6-5-2.7-9.7-5.4-14.3-8 35.5-24.4 52.2-59.7 46.2-98.8-.8-5.5-6-9.2-11.4-8.4-5.5.8-9.3 6-8.4 11.4 5.1 33.7-11.4 64.1-45.5 84.2-37.9-24.4-57.9-45.3-68.2-59.3l14-9.1c3.6-2.4 5.4-6.8 4.3-11l-5-19.3c61.7-36.4 134.9-25.4 186.2-9.4 20.4 6.4 39.4 14.1 55.8 21.8.1.1.3.1.4.2 31.7 14.9 53.9 29.6 59.1 34.2 3.7 3.2 9.2 3.3 12.9.2 16.3-13.3 48.1-19.6 70.5-20.2-20.6 23.9-38.2 56.1-38.6 83.3-.1 5.5 4.3 10.1 9.9 10.2s10.1-4.3 10.2-9.9c.4-26.7 24.4-63.8 47.3-84.4 2.8-2.5 3.9-6.3 3.1-9.9-.9-3.6-3.7-6.4-7.3-7.3-19.4-5-71.1-1.3-101.3 18-9.6-6.8-27-17.5-49.5-28.5 6-10.2 22.6-20.1 49.6-29.5 3.5-1.2 6-4.2 6.6-7.8s-.8-7.3-3.6-9.6c-25.6-20.3-58.6-25.6-75.9-26.9-26.8-2.1-51.8 2.3-65.2 11.4-4.6 3.1-5.8 9.4-2.7 14s9.4 5.8 14 2.7c15.4-10.4 64.8-13.5 101.4 4.6-17.3 7.5-34.5 17.9-42.3 32.6-14.8-6.5-31.1-12.9-48.3-18.3-81.9-25.6-154.3-20.2-209.3 15.5-3.6 2.4-5.3 6.8-4.2 10.9l5 19.5-16.5 10.7c-4.6 2.9-5.9 9-3.1 13.6 10.6 17.8 39.8 53.7 114.5 94.3z" display="inline"/><path d="m491.1 301.8c0-13.1-15.2-19.9-26.6-23.8-5.3-1.8-11 1-12.8 6.3-1.8 5.2 1 11 6.3 12.8 5.6 1.9 8.9 3.6 10.9 4.8-5.5 3.3-21.6 10.2-65.7 16.2-42 5.8-96.4 8.9-153.2 8.9s-111.2-3.2-153.2-8.9c-44.2-6.1-60.2-12.9-65.7-16.2 3.9-2.4 13.2-6.5 34.5-10.9 5.4-1.1 8.9-6.4 7.8-11.9-1.1-5.4-6.4-8.9-11.9-7.8-36.9 7.6-52.6 16.7-52.6 30.5 0 9.6 8 15.6 16.5 19.7 17.1 17 38.1 35.7 40.5 37.9 19.1 18.7 93 37.9 184.2 37.9s165.1-19.2 184.2-37.9c2.4-2.2 23.4-20.9 40.5-37.9 8.3-4 16.3-10.1 16.3-19.7zm-70.9 43.2c-11.2 11.2-72.7 32.2-170.2 32.2s-158.9-21-170.2-32.2c-.1-.1-.3-.3-.4-.4s-5.1-4.5-12.1-11c5.6 1.1 11.5 2.1 17.8 3 44.1 6.7 102.7 10.4 164.9 10.4s120.8-3.7 164.9-10.4c6.3-1 12.3-2 17.8-3-7 6.4-12 10.9-12.1 11s-.3.2-.4.4z" display="inline"/><path d="m381.3 305.8c5.5-.9 9.2-6 8.4-11.5-2.9-18.7-12.5-35.9-26.9-48.3-14.6-12.6-33.2-19.5-52.5-19.5-41.8 0-77 32.7-80.1 74.3-.4 5.5 3.7 10.4 9.3 10.8h.8c5.2 0 9.6-4 10-9.3 2.3-31.3 28.7-55.7 60.1-55.7 29.9 0 54.9 21.4 59.5 50.8.8 5.5 5.9 9.2 11.4 8.4z" display="inline"/><path d="m323.8 258.7c-5.4-1.3-10.8 2.1-12.1 7.5l-2.4 10.2c-1.3 5.4 2.1 10.8 7.5 12.1.8.2 1.6.3 2.3.3 4.5 0 8.7-3.1 9.8-7.7l2.4-10.2c1.3-5.5-2.1-10.9-7.5-12.2z" display="inline"/><path d="m300.9 291.1c4.6-3.1 5.8-9.4 2.7-14l-6.2-9.1c-3.1-4.6-9.4-5.8-14-2.7s-5.8 9.4-2.7 14l6.2 9.1c1.9 2.9 5.1 4.4 8.3 4.4 2.1 0 4-.6 5.7-1.7z" display="inline"/><path d="m272.2 290.5c-5.4-1.3-10.8 2.1-12.1 7.5s2.1 10.8 7.5 12.1l11.1 2.7c.8.2 1.6.3 2.3.3 4.5 0 8.7-3.1 9.8-7.7 1.3-5.4-2.1-10.8-7.5-12.1z" display="inline"/><path d="m338.5 303.1c1.7 0 3.3-.4 4.9-1.3l9.6-5.3c4.9-2.7 6.6-8.8 3.9-13.7-2.7-4.8-8.8-6.6-13.7-3.9l-9.6 5.3c-4.9 2.7-6.6 8.8-3.9 13.7 1.9 3.3 5.3 5.2 8.8 5.2z" display="inline"/><path d="m126.6 190.4c-5.5-.9-10.7 2.8-11.6 8.2-.9 5.5 2.8 10.7 8.2 11.6l5.4.9c.6.1 1.1.1 1.7.1 4.8 0 9.1-3.5 9.9-8.4.9-5.5-2.8-10.7-8.2-11.6z" display="inline"/></g><g display="none"><path d="m77.5 69.2c-22 0-48.9 20.8-55.2 59.4-4.2 25.6-13 136.1-13.4 140.8-.2 2.9.8 5.7 2.8 7.8l17.3 17.5v101c0 19.3 15.8 35.1 35.2 35.1s35.2-15.7 35.2-35.1v-305.4c-.1-8.1-6-21.1-21.9-21.1zm1.7 326.6c0 8.3-6.8 15-15.1 15s-15.1-6.7-15.1-15v-105.2c0-2.6-1-5.1-2.9-7l-16.9-17.3c1.7-21.5 9.2-112.6 12.8-134.5 4.8-29 24-42.6 35.4-42.6.7 0 1.2.1 1.3.2.1.2.3.8.3 1.2zm0-305.3c0-.1 0-.2 0-.2z" display="inline"/><path d="m420.8 159.6c5.5 0 10-4.5 10-10v-65.4c0-5.5-4.5-10-10-10s-10 4.5-10 10v65.3c-.1 5.6 4.4 10.1 10 10.1z" display="inline"/><path d="m450.9 159.6c5.5 0 10-4.5 10-10v-65.4c0-5.5-4.5-10-10-10s-10 4.5-10 10v65.3c0 5.6 4.5 10.1 10 10.1z" display="inline"/><path d="m481.1 74.2c-5.5 0-10 4.5-10 10v85.4c0 16.4-3.3 19.9-9.3 26.3-.9 1-1.9 2-2.9 3.1-8.3 9.3-12.9 20.2-12.9 30.9 0 3 .9 15.1 2.7 40 2.9 40 7.4 100.5 7.4 120.8 0 15.8-13.1 20-20.1 20-6.9 0-20.1-4.2-20.1-20 0-20.3 4.4-80.8 7.4-120.8 1.8-24.9 2.7-37 2.7-40 0-10.7-4.6-21.7-12.9-30.9-1-1.1-1.9-2.1-2.9-3.1-6-6.4-9.3-9.9-9.3-26.3v-85.4c0-5.5-4.5-10-10-10s-10 4.5-10 10v85.4c0 22.6 6.1 30.8 14.8 40 .8.9 1.7 1.8 2.6 2.8 4.9 5.5 7.8 11.8 7.8 17.5 0 2.4-1.3 20-2.6 38.5-2.9 40.3-7.4 101.2-7.4 122.3 0 26 20.7 40.1 40.2 40.1s40.2-14.1 40.2-40.1c0-21.1-4.5-82-7.4-122.3-1.4-18.6-2.6-36.1-2.6-38.5 0-5.6 2.8-12 7.8-17.5.9-1 1.7-1.9 2.6-2.8 8.7-9.2 14.8-17.5 14.8-40v-85.4c-.6-5.5-5.1-10-10.6-10z" display="inline"/><path d="m172.2 195.7c-4.6-3.1-10.8-1.9-13.9 2.7-12.3 18.3-18.8 39.6-18.8 61.6 0 60.9 49.6 110.5 110.5 110.5 17.5 0 34.2-4 49.7-11.8 5-2.5 6.9-8.5 4.4-13.5s-8.5-6.9-13.5-4.4c-12.7 6.4-26.4 9.6-40.7 9.6-49.9 0-90.4-40.6-90.4-90.4 0-18.1 5.3-35.5 15.3-50.4 3.2-4.6 2-10.8-2.6-13.9z" display="inline"/><path d="m325.8 326.7c1.8 1.3 3.8 1.9 5.8 1.9 3.1 0 6.2-1.5 8.2-4.2 13.5-18.8 20.6-41.1 20.6-64.3 0-60.9-49.6-110.5-110.5-110.5-16.5 0-32.3 3.5-47.1 10.5-5 2.4-7.2 8.4-4.8 13.4s8.4 7.2 13.4 4.8c12.1-5.7 25-8.6 38.5-8.6 49.9 0 90.4 40.6 90.4 90.4 0 19-5.8 37.2-16.9 52.6-3.1 4.5-2.1 10.7 2.4 14z" display="inline"/><path d="m118.2 167.4c1.9 1.5 4.1 2.2 6.3 2.2 2.9 0 5.9-1.3 7.8-3.8 28.8-35.8 71.7-56.4 117.7-56.4 36.7 0 72 13.3 99.5 37.5 4.2 3.7 10.5 3.3 14.2-.9s3.3-10.5-.9-14.2c-31.2-27.4-71.2-42.5-112.8-42.5-52.1 0-100.7 23.3-133.3 64-3.5 4.3-2.8 10.7 1.5 14.1z" display="inline"/><path d="m376.6 359.6c-4.1-3.7-10.5-3.3-14.2.8-28.6 32-69.6 50.4-112.4 50.4-46 0-88.9-20.6-117.7-56.5-3.5-4.3-9.8-5-14.1-1.6-4.3 3.5-5 9.8-1.6 14.1 32.6 40.7 81.2 64 133.3 64 48.6 0 95-20.8 127.4-57.1 3.8-4.1 3.5-10.4-.7-14.1z" display="inline"/></g><g display="none"><path d="m187.3 398.3c-.3-5.5-5-9.8-10.5-9.5-15.9.8-29.9-9.1-34-23.9-6.3-22.6-14-40.7-20.6-55.4-2.3-5.1-8.2-7.3-13.3-5s-7.3 8.2-5 13.3c6.4 14 13.6 31.2 19.6 52.4 1.8 6.4 4.7 12.2 8.4 17.2-1.3 1-3.2 2.1-5.7 2.7-18 4.7-31.9-3.1-37.3-20.8-10.7-35.1-22.7-55.6-33.3-73.7-8.4-14.3-15.6-26.6-19.9-43.3-4.1-16.1 1.4-35.1 20.1-40.5 6-1.7 11.9-2 16.8-1.8-1.9 8.4-1.8 17.5.7 26.8 2.1 7.9 5 16.1 9.1 25.8 1.6 3.8 5.3 6.1 9.2 6.1 1.3 0 2.7-.3 4-.8 5.1-2.2 7.4-8.1 5.2-13.2-3.8-8.7-6.3-16-8.1-22.9-4-15.3 1.8-34.3 20.3-39.2l22.5-6.1h.1c.2-.1.4-.1.6-.2.1 0 .2-.1.3-.1.3-.1.7-.1 1-.2l22.5-6.1c18.5-5 33 8.5 37.3 23.7 1.6 5.8 14.7 78.2 22.4 122.4.8 4.9 5.1 8.3 9.9 8.3.6 0 1.2 0 1.7-.2 5.5-1 9.1-6.2 8.2-11.6-5.4-31.2-20.7-116.7-22.8-124.4-2.6-9.3-7.1-17.2-12.9-23.5 4.1-2.6 9.4-5.3 15.4-6.8 18.8-4.8 33.2 8.9 37.7 24.9 4.6 16.2 7.4 46.1 8.1 86.3.1 5.5 4.6 9.9 10 9.9h.2c5.5-.1 10-4.7 9.9-10.2-.5-29.2-2.5-68.8-8.8-91.4-8.2-29.1-34.8-45.8-62-38.9-12.3 3.1-22.1 9.5-27.9 14-9.6-4-20.5-4.9-31.5-1.9l-13.8 3.7c-7.4-30.7-30.8-53.9-38.4-60.9-4.1-3.7-10.5-3.4-14.2.7s-3.4 10.5.7 14.2c13.2 11.9 27.7 31 32.5 51.2l-13.7 3.7c-11 3-20 9.2-26.3 17.5-7.3-1-19-1.6-31.2 1.9-27 7.7-41.6 35.5-34.1 64.8 5 19.4 13.3 33.5 22 48.4 10 17.1 21.4 36.5 31.4 69.3 7 23 24.9 36.4 46.7 36.4 4.8 0 9.8-.7 14.9-2 7.4-1.9 12.6-5.7 15.6-8.5 8.2 5 17.9 7.8 28.1 7.8.9 0 1.9 0 2.8-.1 5.4-.1 9.7-4.8 9.4-10.3z" display="inline"/><path d="m300.5 358.2c-3.6-4.2-10-4.7-14.2-1.1s-4.7 10-1.1 14.2l8.3 9.7c2 2.3 4.8 3.5 7.6 3.5 2.3 0 4.6-.8 6.5-2.4 4.2-3.6 4.7-10 1.1-14.2z" display="inline"/><path d="m467.2 225c-12.3-14.1-31.6-24.9-45.1-25.1-2.5 0-4.8.8-6.7 2.4-6.8 5.8-18.3 26-35.7 58.8-18.3-8.4-38.5-6.3-54.6 7.2-20.7 17.3-55.8 51.1-87.6 87.6-37.4 42.8-57.1 74.2-58.6 93.2-.7 8.8 2.4 14.3 5 17.4 4.9 5.7 12.1 7.6 19.3 7.6 10.4 0 21.1-3.8 26-5.6 15.9-5.7 36.1-15.8 59.9-30 25.5-15.2 52.3-33.5 74.8-50.1.2-.2.5-.3.7-.5 15.2-11.3 28.4-21.7 38-30 10.5-9.1 16.6-20.9 17.5-33.9.4-6.1-.3-12.3-2.1-18.4 34.5-11.8 57.2-20.4 64-26.2 1.9-1.6 3.1-3.8 3.5-6.3 1.9-13.4-6-34-18.3-48.1zm-67.1 97.5c-.5 7.7-4.1 14.4-10.6 20.1-7.7 6.6-17.9 14.8-29.6 23.7l-4-4.6c-3.6-4.2-10-4.7-14.2-1.1s-4.7 10-1.1 14.2l3 3.5c-19.5 14.1-41.6 28.9-62.9 41.7-5.6 3.4-10.9 6.4-15.8 9.2l-9.1-10.6c-3.6-4.2-10-4.7-14.2-1.1s-4.7 10-1.1 14.2l6.2 7.2c-39.3 19.7-47.6 14.5-47.7 14.4s-5.9-14 45.6-75.1c20.9-24.8 45.6-50.4 66.4-70.3l8.6 10c2 2.3 4.8 3.5 7.6 3.5 2.3 0 4.6-.8 6.5-2.4 4.2-3.6 4.7-10 1.1-14.2l-9.1-10.6c4.4-4 8.5-7.5 12.1-10.6 6.4-5.4 13-7.6 19.4-7.6 7.4 0 14.5 2.9 20.7 7.3 3.7 2.6 7 5.7 9.9 9 0 0 0 .1.1.1 8.5 9.5 12.9 20.4 12.2 30.1zm9.4-35.2c-1.8-2.7-3.9-5.4-6.1-8-2.2-2.5-4.4-4.9-6.8-7 7.6-14.4 22.2-41.8 29.4-51.7 7.5 2.1 18.5 8.7 26.1 17.5 0 0 0 .1.1.1 8.1 9.3 12.5 20.8 13.5 27.9-11.1 5.6-40 15.6-56.2 21.2z" display="inline"/><path d="m338.4 245.6c.8.2 1.6.3 2.4.3 4.5 0 8.6-3.1 9.7-7.6l13.3-53.3 16.6.6h.4c5.4 0 9.8-4.3 10-9.7.2-5.5-4.1-10.2-9.7-10.4l-12.3-.4 7.3-29.2c1.3-5.4-1.9-10.8-7.3-12.2-5.4-1.3-10.8 1.9-12.2 7.3l-10.3 41.3v.1l-1.4 5.6-6.5-10.5c-2.9-4.7-9.1-6.2-13.8-3.2-4.7 2.9-6.2 9.1-3.2 13.8l16.8 27.2-7 28.3c-1.5 5.2 1.8 10.6 7.2 12z" display="inline"/><path d="m281.2 155.3c5.3-1.7 8.1-7.4 6.4-12.7-2.5-7.6-2.7-15.8-.6-23.5 5.1-18.7 22.8-31.4 42.1-30.2 5.2.3 9.7-3.3 10.5-8.4.1-.7.2-1.3.3-2 .1-.9.2-1.7.4-2.2 5.9-21.8 28.5-34.7 50.4-28.8 10.6 2.9 19.4 9.7 24.8 19.2s6.9 20.6 4 31.1c-.1.5-.5 1.3-.8 2.1-.3.6-.5 1.2-.8 1.9-1.9 4.8.2 10.2 4.8 12.6 17.3 8.7 26.1 28.6 21 47.3-1.3 4.6-3.3 9-6.1 12.9-3.2 4.5-2.1 10.8 2.4 14 1.8 1.2 3.8 1.8 5.8 1.8 3.1 0 6.2-1.5 8.2-4.2 4.1-5.8 7.2-12.3 9-19.2 6.8-25-3.1-51.4-23.7-66 3.5-15.1 1.3-30.7-6.5-44.3-8.1-14.2-21.2-24.3-37-28.6-31.8-8.7-64.7 9.6-74.4 40.8-25.2 2.1-47.1 19.9-53.9 44.9-3.1 11.6-2.8 23.7.9 35.1 1.9 5.3 7.6 8.2 12.8 6.4z" display="inline"/></g><g display="none"><path d="m102.5 306.9c.8 4.9 5.1 8.4 9.9 8.4.6 0 1.1 0 1.7-.1 5.5-.9 9.1-6.1 8.2-11.6-.6-3.7-1.2-7.5-1.6-11.2-5.4-46.6 6.6-85.8 32.8-107.6 19.7-16.4 45.3-20.8 72.1-12.5 12.4 3.9 21.3 6.4 30.7 6.4s18.3-2.5 30.7-6.4c26.8-8.3 52.4-3.9 72.1 12.5 26.3 21.8 38.2 61 32.8 107.6-.4 3.5-.9 7.1-1.5 10.6-.9 5.5 2.8 10.7 8.2 11.6 5.5.9 10.7-2.8 11.6-8.2.7-3.9 1.2-7.8 1.7-11.7 6.2-53.5-8.4-99.2-40-125.4-24.8-20.5-57.9-26.4-90.9-16.2-5.8 1.8-10.6 3.2-14.7 4.2 0-13.1 2.1-24.8 5.3-35 .2-.4.3-.9.4-1.4 12.3-36.8 39.6-54.9 41.1-55.9 4.7-3 6-9.2 3-13.9s-9.2-6.1-13.9-3.1c-1.4.9-22.9 14.9-38.8 43.1-6-12.9-15.6-27.8-30-37-29.6-18.7-69.7-6.1-71.4-5.5-4.6 1.5-7.5 6-6.9 10.8.2 1.8 5.9 43.5 35.5 62.2 12.9 8.2 28.5 10.5 42 10.5 5.8 0 11.3-.4 16-1-1.5 8.1-2.4 16.8-2.5 26.1-4.2-1-8.9-2.4-14.7-4.2-33-10.3-66.2-4.4-90.9 16.2-31.6 26.2-46.2 71.9-40 125.4.7 4.2 1.3 8.3 2 12.3zm99-202.1c-14.7-9.3-21.5-27.9-24.4-39 11.3-2.1 31.2-3.8 45.7 5.4 14.7 9.3 23.1 28.1 27 39.6-12.4 2-33.7 3.3-48.3-6z" display="inline"/><path d="m193 213c5.3-1.8 8.1-7.5 6.3-12.8s-7.5-8.1-12.8-6.3c-24.5 8.3-38.8 30.5-37.4 57.8.3 5.4 4.7 9.5 10 9.5h.5c5.5-.3 9.8-5 9.5-10.5-.9-18.4 7.8-32.2 23.9-37.7z" display="inline"/><path d="m481.1 325.3h-422c-16.6 0-30.1-13.5-30.1-30.1s13.5-30.1 30.1-30.1h20.1c5.5 0 10-4.5 10-10s-4.5-10-10-10h-20.1c-27.7 0-50.2 22.5-50.2 50.2v110.5c0 27.7 22.5 50.2 50.2 50.2h421.9c5.5 0 10-4.5 10-10v-110.6c.1-5.6-4.4-10.1-9.9-10.1zm-10.1 110.5h-70.3v-50.2c0-5.5-4.5-10-10-10s-10 4.5-10 10v50.2h-50.2v-50.2c0-5.5-4.5-10-10-10s-10 4.5-10 10v50.2h-50.5v-50.2c0-5.5-4.5-10-10-10s-10 4.5-10 10v50.2h-50.2v-50.2c0-5.5-4.5-10-10-10s-10 4.5-10 10v50.2h-50.2v-50.2c0-5.5-4.5-10-10-10s-10 4.5-10 10v50.2h-40.5c-16.6 0-30.1-13.5-30.1-30.1v-70.3c8.4 6.3 18.8 10.1 30.1 10.1h411.9z" display="inline"/></g><g display="none"><path d="m351.4 199.7c-21.3-18.6-50.9-24.6-81.2-16.4-3.9 1.1-7.2 1.8-10.1 2.4v-4.8c0-13.5 2.7-24.7 6.5-33.8.1-.2.2-.5.3-.7 10-22.8 27.4-32.3 28.5-32.9 4.9-2.5 6.9-8.6 4.3-13.5-2.5-4.9-8.6-6.9-13.5-4.4-1.1.6-16.2 8.5-28.9 26.7-8.5-12.6-22.5-28.9-41.4-35.7-32.4-11.7-68.1 9.6-69.6 10.5-4.1 2.5-5.9 7.5-4.2 12 .6 1.7 15.2 41 47.5 52.6 6.9 2.5 14.2 3.5 21.3 3.5 11.2 0 22-2.4 30.8-5.2-1.2 6.4-1.9 13.4-1.9 20.9v4.8c-2.9-.5-6.2-1.3-10.1-2.4-30.4-8.2-60-2.2-81.2 16.4-22.6 19.8-32.8 51.8-28 87.7 4.7 34.9 21.9 65.2 34.4 85 16.6 26.2 40.8 40.4 64.7 38 6.4-.6 11.5-1.6 16-2.3 5.3-1 9.5-1.7 14.3-1.7s9 .8 14.3 1.7c4.5.8 9.6 1.7 16 2.3 1.7.2 3.5.3 5.2.3 22.2 0 44.1-14 59.5-38.3 12.5-19.8 29.7-50.1 34.4-85 4.9-35.9-5.3-67.9-27.9-87.7zm-154.9-56.9c-16-5.8-26.6-22.4-31.8-32.5 10.2-4.5 28.6-10.6 44.5-4.9 16 5.8 28.1 22.2 34.4 32.5-11.4 4.7-31.2 10.7-47.1 4.9zm163 142c-4.1 31-19.9 58.7-31.4 76.9-12.4 19.7-29.5 30.4-45.8 28.8-5.7-.6-10.2-1.4-14.5-2.1-5.8-1-11.3-2-17.8-2s-12 1-17.8 2c-4.3.8-8.8 1.6-14.5 2.1-16.2 1.6-33.3-9.1-45.8-28.8-11.5-18.2-27.3-46-31.4-76.9-3.9-29.6 3.6-54.4 21.4-70 16.1-14.1 39-18.6 62.8-12.1 11 3 18.1 4.1 25.4 4.1 7.3 0 14.4-1.2 25.4-4.1 23.8-6.4 46.6-2 62.8 12.1 17.6 15.6 25.1 40.4 21.2 70z" display="inline"/><path d="m189.3 221.6c-20.6 12.2-31.2 33.2-28.9 57.6.5 5.2 4.9 9.1 10 9.1h.9c5.5-.5 9.6-5.4 9.1-10.9-2.1-22.4 11.1-33.7 19.1-38.5 4.8-2.8 6.4-9 3.5-13.8-2.8-4.7-9-6.3-13.7-3.5z" display="inline"/><path d="m77.5 69.2c-22 0-48.9 20.8-55.2 59.4-4.2 25.6-13 136.1-13.4 140.8-.2 2.9.8 5.7 2.8 7.8l17.3 17.5v101c0 19.3 15.8 35.1 35.2 35.1s35.2-15.7 35.2-35.1v-305.4c-.1-8.1-6-21.1-21.9-21.1zm1.7 326.6c0 8.3-6.8 15-15.1 15s-15.1-6.7-15.1-15v-105.2c0-2.6-1-5.1-2.9-7l-16.9-17.3c1.7-21.5 9.2-112.6 12.8-134.5 4.8-29 24-42.6 35.4-42.6.7 0 1.2.1 1.3.2.1.2.3.8.3 1.2zm0-305.3c0-.1 0-.2 0-.2z" display="inline"/><path d="m420.8 159.6c5.5 0 10-4.5 10-10v-65.4c0-5.5-4.5-10-10-10s-10 4.5-10 10v65.3c-.1 5.6 4.4 10.1 10 10.1z" display="inline"/><path d="m450.9 159.6c5.5 0 10-4.5 10-10v-65.4c0-5.5-4.5-10-10-10s-10 4.5-10 10v65.3c0 5.6 4.5 10.1 10 10.1z" display="inline"/><path d="m481.1 74.2c-5.5 0-10 4.5-10 10v85.4c0 16.4-3.3 19.9-9.3 26.3-.9 1-1.9 2-2.9 3.1-8.3 9.3-12.9 20.2-12.9 30.9 0 3 .9 15.1 2.7 40 2.9 40 7.4 100.5 7.4 120.8 0 15.8-13.1 20-20.1 20s-20.1-4.2-20.1-20c0-20.3 4.4-80.8 7.4-120.8 1.8-24.9 2.7-37 2.7-40 0-10.7-4.6-21.7-12.9-30.9-1-1.1-1.9-2.1-2.9-3.1-6-6.4-9.3-9.9-9.3-26.3v-85.4c0-5.5-4.5-10-10-10s-10 4.5-10 10v85.4c0 22.6 6.1 30.8 14.8 40 .8.9 1.7 1.8 2.6 2.8 4.9 5.5 7.8 11.8 7.8 17.5 0 2.4-1.3 20-2.6 38.5-2.9 40.3-7.4 101.2-7.4 122.3 0 26 20.7 40.1 40.2 40.1s40.2-14.1 40.2-40.1c0-21.1-4.5-82-7.4-122.3-1.4-18.6-2.6-36.1-2.6-38.5 0-5.6 2.8-12 7.8-17.5.9-1 1.7-1.9 2.6-2.8 8.7-9.2 14.8-17.5 14.8-40v-85.4c-.6-5.5-5.1-10-10.6-10z" display="inline"/></g><g display="none"><path d="m79.2 252.8c-13.2 7.6-22 19.7-24.7 34.1-1.1 5.4 2.5 10.7 8 11.8.6.1 1.3.2 1.9.2 4.7 0 8.9-3.3 9.9-8.1 2.2-11.5 10.4-17.8 15.1-20.5 4.8-2.8 6.4-8.9 3.7-13.7-2.9-4.9-9.1-6.6-13.9-3.8z" display="inline"/><path d="m121.6 222.4c-2-.4-4.2-.9-6.8-1.6-26.8-7.1-52.7-1.7-71.2 14.7-19.1 16.9-27.7 43.8-23.6 73.8 1.5 11.2 12.5 44 16.8 55.9 1.5 4.1 5.3 6.6 9.4 6.6 1.1 0 2.3-.2 3.4-.6 5.2-1.9 7.9-7.7 6-12.9-5.6-15.4-14.6-43.9-15.7-51.7-3.2-23.6 2.8-43.5 17-56.1 13.4-11.9 32.6-15.6 52.8-10.3 9.4 2.5 15.6 3.5 21.9 3.5 6.3 0 12.5-1 21.9-3.5 20.8-5.5 42.6-1.1 54.2 10.8 12.6 13 18.3 25.4 22 47.4.9 5.5 6.1 9.2 11.6 8.2 5.5-.9 9.2-6.1 8.2-11.6-4.3-25.9-12-42.2-27.4-58.1-16.7-17.3-45.7-23.7-73.8-16.3-2.6.7-4.8 1.2-6.8 1.6v-1.9c0-11.1 2.3-20.3 5.6-27.7 0 0 0-.1.1-.1 8.2-18.5 22.7-26.2 23.6-26.7 4.9-2.5 6.9-8.5 4.5-13.4-2.5-5-8.5-7-13.5-4.5-.9.5-13.2 6.8-24 21.1-7.4-10.4-19.2-23.2-34.8-28.7-28.2-9.9-59.1 8.1-60.4 8.9-4.2 2.5-6 7.6-4.3 12.1.5 1.4 13.2 34.8 41.4 44.7 6 2.1 12.3 3 18.5 3 8.7 0 17.2-1.7 24.4-3.7-.7 4.7-1.2 9.7-1.2 15.1v2zm-35-35.2c-12.3-4.3-20.7-16.3-25.3-24.5 8.7-3.6 22.9-7.6 35.2-3.3s21.8 16.2 27.3 24.6c-10.4 3.7-25.6 7.3-37.2 3.2z" display="inline"/><path d="m187.5 388.7c-1.1-5.4-6.3-9-11.8-8-5.4 1.1-9 6.3-8 11.8l2.7 13.8c.9 4.8 5.1 8.1 9.9 8.1.6 0 1.3-.1 1.9-.2 5.4-1.1 9-6.3 8-11.8z" display="inline"/><path d="m398.9 411.7c2.3 0 4.2-.1 5.7-.4 2.4-.5 4.6-1.8 6.1-3.8 8.8-11.5 12.4-35.2 8.5-55.1s-16.3-40.5-28.8-47.9c-2.1-1.2-4.6-1.7-7-1.2-9.6 1.8-31.8 15-66.5 37.1-12.7-18.2-32.9-27.4-55.5-23.3-29.1 5.3-81 18.4-131.2 35.8-58.8 20.5-94.5 39.5-106.2 56.6-4.2 6.2-5.7 12.4-4.5 18.6 2.6 13 16.1 29.9 101.2 29.9 4.3 0 8.8 0 13.5-.1 32.6-.6 68.1-3.4 98.6-7 .3 0 .6-.1.9-.1 20.6-2.4 38.9-5.2 52.5-7.9 14.8-2.9 26.7-10.7 34.5-22.4 3.8-5.7 6.5-12.2 8.1-19.2 33.4 6.4 57.6 10.4 70.1 10.4zm-15.6-87.3c6.3 6 13.6 18.9 16.1 32 2.6 12.9.8 27.4-2.7 35.3-13.3-.5-48-7-66.6-10.6-.2-3.8-.7-7.7-1.5-11.6-.7-3.8-1.7-7.5-2.9-11 15.2-9.6 45.5-28.8 57.6-34.1zm-79.5 84.9c-4.8 7.3-12.1 11.9-21.7 13.8-11.2 2.2-25.7 4.5-42.2 6.6l-1.4-7.5c-1.1-5.4-6.3-9-11.8-8-5.4 1.1-9 6.3-8 11.8l1.2 6c-27.4 3-57.9 5.2-86.3 5.7-6.4.1-12.6.2-18.5.1l-3.1-15.8c-1.1-5.4-6.3-9-11.8-8-5.4 1.1-9 6.3-8 11.8l2.2 11.4c-11.7-.6-21.9-1.7-30.4-3.2-19.6-3.5-24.8-8.4-25.1-9.9-.1-.4.1-1.5 1.4-3.3 4.2-6.1 21.9-23.1 96.2-49 31.6-11 63.7-20.2 90.2-26.7l2.9 15.2c.9 4.8 5.1 8.1 9.9 8.1.6 0 1.3-.1 1.9-.2 5.4-1.1 9-6.3 8-11.8l-3.1-16c6.8-1.5 13-2.7 18.3-3.7 2.5-.5 5-.7 7.3-.7 21.7 0 33.4 19.2 36.9 37.1v.1c3 13.9 1.1 27-5 36.1z" display="inline"/><path d="m481 172c0-.1 0-.2 0-.3 0-.4-.1-.8-.2-1.2-.1-.4-.2-.8-.3-1.2 0-.1-.1-.2-.1-.3-.1-.3-.3-.7-.4-1 0-.1 0-.1-.1-.2-.2-.4-.4-.7-.7-1.1 0 0 0-.1-.1-.1l-48.3-67.6v-47c0-5.5-4.5-10-10-10h-160.7c-5.5 0-10 4.5-10 10v47l-48.4 67.7c-1.2 1.7-1.9 3.7-1.9 5.8v30.1c0 5.5 4.5 10 10 10s10-4.5 10-10v-26.9l40.2-56.3 40.2 56.3v127.4c0 5.5 4.5 10 10 10s10-4.5 10-10v-120.5h140.8v251.2h-110.5c-5.5 0-10 4.5-10 10s4.5 10 10 10h120.5c5.5 0 10-4.5 10-10v-271.3c.1-.1.1-.3 0-.5zm-70.3-110v30.1h-140.6v-30.1zm-95.2 100.5-35.9-50.2h136l35.9 50.2z" display="inline"/></g><g display="none"><path d="m400.1 398.1c37.6-38.1 60.9-90.5 60.9-148.1 0-116.3-94.6-211-211-211-57.6 0-110 23.2-148.1 60.9-.4.3-.8.6-1.1.9s-.7.7-.9 1.1c-37.6 38.1-60.9 90.5-60.9 148.1 0 116.3 94.6 211 211 211 57.6 0 110-23.2 148.1-60.9.4-.3.8-.6 1.1-.9.3-.4.6-.7.9-1.1zm40.8-148.1c0 49-18.6 93.8-49.1 127.6l-29.1-29.1c16.2-5.2 27.9-20.4 27.9-38.3v-20.1c0-5.5-4.5-10-10-10h-86.3l-21.4-21.4 5.4-5.7c1.9-2 4.1-3 6.4-3s4.5 1 6.4 3l7.4 7.8c5.7 6 13.1 9.3 20.9 9.3s15.3-3.3 20.9-9.3l7.4-7.8c1.9-2 4.1-3 6.4-3s4.5 1 6.4 3l13 13.7c3.8 4 10.2 4.2 14.2.4s4.2-10.2.4-14.2l-13-13.7c-5.7-6-13.1-9.3-20.9-9.3s-15.3 3.3-20.9 9.3l-7.4 7.8c-1.9 2-4.1 3-6.4 3s-4.5-1-6.4-3l-7.4-7.8c-5.7-6-13.1-9.3-20.9-9.3s-15.3 3.3-20.9 9.3l-5 5.3-24.6-24.6h146.5c5.5 0 10-4.5 10-10v-10c0-38.8-31.5-70.3-70.3-70.3h-140.8c-10.3 0-20.3 2.2-29.5 6.5l-27.8-27.8c33.8-30.6 78.6-49.2 127.6-49.2 105.3 0 190.9 85.6 190.9 190.9zm-96.3 80.4-30.1-30.1h56.1v10c0 11.1-9 20.1-20.1 20.1zm-178.9-178.9c4.5-1.3 9.2-2 14-2h140.6c27.7 0 50.2 22.5 50.2 50.2h-156.5zm-106.6 98.5c0-49 18.6-93.8 49.1-127.6l142.5 142.5c.2.2.4.4.6.6l31.8 31.8 50.2 50.2s.1.1.1.1l44.3 44.3c-33.8 30.5-78.6 49.1-127.6 49.1-105.4-.1-191-85.7-191-191z" display="inline"/><path d="m119.4 219.9h46.5c5.5 0 10-4.5 10-10s-4.5-10-10-10h-36.4c0-8.4 2.1-16.6 6.1-23.9 2.6-4.9.8-11-4-13.6-4.9-2.6-11-.8-13.6 4-5.6 10.2-8.5 21.8-8.5 33.5v10c-.1 5.5 4.4 10 9.9 10z" display="inline"/><path d="m293.3 330.4h-143.8c-11.1 0-20.1-9-20.1-20.1v-10h115.6c5.5 0 10-4.5 10-10s-4.5-10-10-10h-125.6c-5.5 0-10 4.5-10 10v20.1c0 22.2 18 40.2 40.2 40.2h143.8c5.5 0 10-4.5 10-10 0-5.7-4.5-10.2-10.1-10.2z" display="inline"/><path d="m166.9 239.2c-5.7-6-13.1-9.3-20.9-9.3s-15.3 3.3-20.9 9.3l-12.9 13.6c-3.8 4-3.6 10.4.4 14.2s10.4 3.6 14.2-.4l12.9-13.6c1.9-2 4.1-3 6.4-3s4.5 1 6.4 3l7.4 7.8c5.7 6 13.1 9.3 20.9 9.3s15.3-3.3 20.9-9.3l7.4-7.8c3.8-4 3.6-10.4-.4-14.2s-10.4-3.6-14.2.4l-7.5 7.8c-1.9 2-4.1 3-6.4 3s-4.5-1-6.4-3z" display="inline"/></g></g></svg>