<svg height="512" viewBox="0 0 64 64" width="512" xmlns="http://www.w3.org/2000/svg"><g id="_11-Casino_chip" data-name="11-Casino chip"><path d="m13.568 45.621a24 24 0 1 1 32.524-31.014l-1.84.783a22 22 0 1 0 -29.813 28.43z"/><path d="m20.21 28.606a9.552 9.552 0 0 0 -4.481-3.643 1 1 0 0 1 0-1.926c3.379-.95 6.457-6.417 7.357-8.443a1 1 0 0 1 .914-.594 1 1 0 0 1 .914.594 26.327 26.327 0 0 0 3.648 5.746l-1.5 1.318a25.9 25.9 0 0 1 -3.062-4.449c-1.1 1.983-3.107 5.1-5.675 6.789a14.5 14.5 0 0 1 3.475 3.395z"/><path d="m13.335 35.928a16 16 0 1 1 23.465-21.528l-1.6 1.2a14 14 0 1 0 -20.531 18.838z"/><path d="m3.492 20.993a2.113 2.113 0 0 1 -1.074-.293l-1.818-.783.8-1.834 1.879.813a1 1 0 0 1 .144.077.169.169 0 0 0 .15.009 1.107 1.107 0 0 0 .6-.578l3.659-7.059a1.135 1.135 0 0 0 0-1.276 1.024 1.024 0 0 1 -.128-.1l-1.372-1.225 1.336-1.488 1.317 1.182a3 3 0 0 1 .621 3.829l-3.659 7.057a3.047 3.047 0 0 1 -1.862 1.59 2.292 2.292 0 0 1 -.593.079z"/><path d="m40.064 15.459-1.656-3.193a3 3 0 0 1 .622-3.828l1.317-1.182 1.336 1.488-1.368 1.228a1.024 1.024 0 0 1 -.128.1 1.139 1.139 0 0 0 0 1.277l1.656 3.193z"/><path d="m7.668 40.737-1.336-1.488 1.368-1.228a1.216 1.216 0 0 1 .127-.1 1.135 1.135 0 0 0 0-1.277l-3.655-7.054a1.106 1.106 0 0 0 -.6-.579c-.095-.024-.133 0-.15.01a1.1 1.1 0 0 1 -.144.076l-1.878.814-.8-1.835 1.815-.787a2.168 2.168 0 0 1 1.667-.21 3.047 3.047 0 0 1 1.862 1.59l3.659 7.058a3 3 0 0 1 -.621 3.828z"/><path d="m28 6h-8a2.825 2.825 0 0 1 -3-2.6v-2.4h2v2.4c0 .283.428.6 1 .6h8c.572 0 1-.317 1-.6v-2.4h2v2.4a2.825 2.825 0 0 1 -3 2.6z"/><path d="m4 23h2v2h-2z"/><path d="m13 39h2v2h-2z"/><path d="m33 7h2v2h-2z"/><path d="m13 7h2v2h-2z"/><path d="m41 47h-5v-2h5a2 2 0 0 0 0-4h-2a4 4 0 0 1 0-8h5v2h-5a2 2 0 0 0 0 4h2a4 4 0 0 1 0 8z"/><path d="m39 31h2v18h-2z"/><path d="m40 64a24 24 0 1 1 24-24 24.028 24.028 0 0 1 -24 24zm0-46a22 22 0 1 0 22 22 22.025 22.025 0 0 0 -22-22z"/><path d="m40 57a17 17 0 1 1 17-17 17.019 17.019 0 0 1 -17 17zm0-32a15 15 0 1 0 15 15 15.017 15.017 0 0 0 -15-15z"/><path d="m39 56h2v7h-2z"/><path d="m39 17h2v7h-2z"/><path d="m17 39h7v2h-7z"/><path d="m56 39h7v2h-7z"/><path d="m25.011 22.46h2v7.102h-2z" transform="matrix(.707 -.707 .707 .707 -10.774 26.013)"/><path d="m52.989 50.438h2v7.102h-2z" transform="matrix(.707 -.707 .707 .707 -22.363 53.993)"/><path d="m50.438 25.011h7.102v2h-7.102z" transform="matrix(.707 -.707 .707 .707 -2.58 45.794)"/><path d="m22.46 52.989h7.102v2h-7.102z" transform="matrix(.707 -.707 .707 .707 -30.557 34.206)"/><path d="m54 15a1 1 0 0 1 -.9-.553l-1.517-3.035-3.03-1.518a1 1 0 0 1 0-1.789l3.035-1.518 1.517-3.035a1.043 1.043 0 0 1 1.79 0l1.517 3.035 3.035 1.518a1 1 0 0 1 0 1.789l-3.035 1.518-1.512 3.035a1 1 0 0 1 -.9.553zm-2.765-6 1.545.772a1 1 0 0 1 .448.447l.772 1.545.772-1.545a1 1 0 0 1 .448-.447l1.545-.772-1.545-.772a1 1 0 0 1 -.448-.448l-.772-1.545-.772 1.545a1 1 0 0 1 -.448.448z"/><path d="m10 61a1 1 0 0 1 -.895-.553l-1.517-3.035-3.035-1.518a1 1 0 0 1 0-1.789l3.035-1.518 1.517-3.035a1.043 1.043 0 0 1 1.79 0l1.517 3.035 3.035 1.518a1 1 0 0 1 0 1.789l-3.035 1.518-1.512 3.035a1 1 0 0 1 -.9.553zm-2.765-6 1.545.772a1 1 0 0 1 .448.447l.772 1.545.772-1.545a1 1 0 0 1 .448-.447l1.545-.772-1.545-.772a1 1 0 0 1 -.448-.448l-.772-1.545-.772 1.545a1 1 0 0 1 -.448.448z"/></g></svg>