<svg xmlns="http://www.w3.org/2000/svg" data-bbox="19.511 166.379 470.336 179.243" style="" viewBox="19.51 166.38 470.34 179.24"><g transform="matrix(0.35008339353776996, 0, 0, 0.35008339353776996, 8.966977758903349, 166.3786539252552)"><path d="M431.587 49.191c-31.624 30.42-73.488 40.158-117.46 40.158h-9.336  c-23.491 0-46.079 3.313-67.464 9.638C135.228 128.2 60.235 222.468 60.235 333.904v86.739h177.092  c134.927 0 244.555-109.628 244.555-244.555V0L431.587 49.191z" fill="#f9fafb" transform="matrix(1, 0, 0, 1, 0, 0)"/><path d="M481.882 0v176.088c0 134.927-109.628 244.555-244.555 244.555V98.987  c21.385-6.326 43.973-9.638 67.464-9.638h9.336c43.973 0 85.836-9.738 117.46-40.158L481.882 0z" fill="#e5e7eb" transform="matrix(1, 0, 0, 1, 0, 0)"/><path d="M271.059 300.173v30.118h-89.75C105.412 383.599 60.235 424.658 60.235 512H30.118  c0-102.401 55.717-151.291 135.529-207.309v-79.813h30.118v58.729c13.252-9.035 27.107-18.673 41.562-29.215  c17.469-12.648 35.84-26.202 54.513-41.261l18.673 23.493c-25.599 20.48-50.295 38.55-73.186 54.814  c-4.216 3.011-8.434 5.722-12.648 8.733L271.059 300.173L271.059 300.173z" fill="#d1d5db" transform="matrix(1, 0, 0, 1, 0, 0)"/><path fill="#d1d5db" transform="matrix(1, 0, 0, 1, 0, 0)" data-type="rect" data-x="237.327" data-y="300.173" data-width="33.732" data-height="30.118" d="M237.327 300.173H271.05899999999997 V330.291 H237.327 Z"/><path d="M310.513 236.624c-25.599 20.48-50.295 38.55-73.186 54.814v-37.046   c17.469-12.648 35.84-26.202 54.513-41.261L310.513 236.624z" fill="#d1d5db" transform="matrix(1, 0, 0, 1, 0, 0)"/></g><path text="S I P H O R I A" fill="#fff" space="preserve" text-anchor="middle" offset="0.5" font-scale="contain" font-size="48" font-family="Manrope" transform="matrix(1.0137450459626185, 0, 0, 1.0363014004183069, 343.4217084539696, 292.56071214174153)" font-style="normal" font-weight="700" data-fl-textpath="" d="M-129.254 0.72L-129.254 0.72Q-133.044 0.72 -136.084-0.6Q-139.114-1.92 -141.074-4.38Q-143.024-6.84 -143.554-10.22L-143.554-10.22L-137.554-11.14Q-136.784-8.06 -134.404-6.38Q-132.014-4.7 -128.894-4.7L-128.894-4.7Q-127.044-4.7 -125.414-5.28Q-123.784-5.86 -122.764-6.96Q-121.744-8.06 -121.744-9.67L-121.744-9.67Q-121.744-10.39 -121.984-11Q-122.224-11.62 -122.684-12.1Q-123.154-12.58 -123.884-12.97Q-124.624-13.37 -125.584-13.66L-125.584-13.66L-134.504-16.3Q-135.664-16.63 -136.994-17.2Q-138.324-17.76 -139.514-18.76Q-140.704-19.75 -141.454-21.3Q-142.214-22.85 -142.214-25.13L-142.214-25.13Q-142.214-28.46 -140.524-30.73Q-138.824-33 -135.964-34.13Q-133.094-35.26 -129.584-35.23L-129.584-35.23Q-126.034-35.21 -123.254-34.02Q-120.464-32.83 -118.594-30.58Q-116.724-28.32 -115.954-25.13L-115.954-25.13L-122.174-24.05Q-122.554-25.87 -123.644-27.16Q-124.744-28.44 -126.314-29.11Q-127.884-29.78 -129.664-29.83L-129.664-29.83Q-131.384-29.86 -132.864-29.32Q-134.344-28.78 -135.244-27.77Q-136.144-26.76 -136.144-25.42L-136.144-25.42Q-136.144-24.14 -135.374-23.34Q-134.604-22.54 -133.464-22.07Q-132.324-21.6 -131.144-21.29L-131.144-21.29L-124.954-19.56Q-123.684-19.22 -122.104-18.65Q-120.514-18.07 -119.054-17.04Q-117.584-16.01 -116.644-14.33Q-115.694-12.65 -115.694-10.06L-115.694-10.06Q-115.694-7.37 -116.804-5.34Q-117.924-3.31 -119.824-1.97Q-121.714-0.62 -124.154 0.05Q-126.584 0.72 -129.254 0.72ZM-94.624 0L-100.404 0L-100.404-34.56L-94.624-34.56L-94.624 0ZM-72.04 0L-77.82 0L-77.82-34.56L-63.54-34.56Q-63.04-34.56 -62.24-34.52Q-61.45-34.49 -60.78-34.37L-60.78-34.37Q-57.78-33.91 -55.82-32.38Q-53.87-30.84 -52.92-28.5Q-51.97-26.16 -51.97-23.3L-51.97-23.3Q-51.97-20.47 -52.93-18.13Q-53.89-15.79 -55.85-14.26Q-57.8-12.72 -60.78-12.26L-60.78-12.26Q-61.45-12.17 -62.26-12.12Q-63.06-12.07 -63.54-12.07L-63.54-12.07L-72.04-12.07L-72.04 0ZM-72.04-29.14L-72.04-17.47L-63.78-17.47Q-63.3-17.47 -62.7-17.52Q-62.1-17.57 -61.6-17.71L-61.6-17.71Q-60.16-18.07 -59.33-18.98Q-58.5-19.9 -58.15-21.05Q-57.8-22.2 -57.8-23.3L-57.8-23.3Q-57.8-24.41 -58.15-25.57Q-58.5-26.74 -59.33-27.65Q-60.16-28.56 -61.6-28.92L-61.6-28.92Q-62.1-29.06 -62.7-29.1Q-63.3-29.14 -63.78-29.14L-63.78-29.14L-72.04-29.14ZM-31.792 0L-37.572 0L-37.572-34.56L-31.792-34.56L-31.792-20.02L-15.422-20.02L-15.422-34.56L-9.662-34.56L-9.662 0L-15.422 0L-15.422-14.59L-31.792-14.59L-31.792 0ZM 21.28 0.72L 21.28 0.72Q 16.09 0.72  12.4-1.55Q 8.7-3.82  6.72-7.87Q 4.74-11.93  4.74-17.28L 4.74-17.28Q 4.74-22.63  6.72-26.69Q 8.7-30.74  12.4-33.01Q 16.09-35.28  21.28-35.28L 21.28-35.28Q 26.46-35.28  30.17-33.01Q 33.88-30.74  35.86-26.69Q 37.84-22.63  37.84-17.28L 37.84-17.28Q 37.84-11.93  35.86-7.87Q 33.88-3.82  30.17-1.55Q 26.46 0.72  21.28 0.72ZM 21.28-4.73L 21.28-4.73Q 24.76-4.7  27.07-6.26Q 29.39-7.82  30.55-10.66Q 31.72-13.49  31.72-17.28L 31.72-17.28Q 31.72-21.07  30.55-23.87Q 29.39-26.66  27.07-28.22Q 24.76-29.78  21.28-29.83L 21.28-29.83Q 17.8-29.86  15.49-28.3Q 13.19-26.74  12.02-23.9Q 10.86-21.07  10.86-17.28L 10.86-17.28Q 10.86-13.49  12.01-10.69Q 13.16-7.9  15.48-6.34Q 17.8-4.78  21.28-4.73ZM 58.016 0L 52.236 0L 52.236-34.56L 66.516-34.56Q 67.016-34.56  67.816-34.52Q 68.606-34.49  69.276-34.37L 69.276-34.37Q 72.276-33.91  74.236-32.38Q 76.186-30.84  77.136-28.5Q 78.086-26.16  78.086-23.3L 78.086-23.3Q 78.086-19.08  75.946-16.04Q 73.816-13.01  69.396-12.29L 69.396-12.29L 66.926-12.07L 58.016-12.07L 58.016 0ZM 78.636 0L 72.086 0L 65.266-14.06L 71.146-15.36L 78.636 0ZM 58.016-29.14L 58.016-17.47L 66.276-17.47Q 66.756-17.47  67.356-17.52Q 67.956-17.57  68.456-17.71L 68.456-17.71Q 69.896-18.07  70.726-18.98Q 71.556-19.9  71.906-21.05Q 72.256-22.2  72.256-23.3L 72.256-23.3Q 72.256-24.41  71.906-25.57Q 71.556-26.74  70.726-27.65Q 69.896-28.56  68.456-28.92L 68.456-28.92Q 67.956-29.06  67.356-29.1Q 66.756-29.14  66.276-29.14L 66.276-29.14L 58.016-29.14ZM 99.776 0L 93.996 0L 93.996-34.56L 99.776-34.56L 99.776 0ZM 120.13 0L 114.18 0L 125.08-34.56L 133.55-34.56L 144.44 0L 138.49 0L 128.6-31.01L 129.9-31.01L 120.13 0ZM 138.4-7.49L 120.25-7.49L 120.25-12.89L 138.4-12.89L 138.4-7.49Z"/></svg>