<svg xmlns="http://www.w3.org/2000/svg" viewBox="0 0 512 512" width="512" height="512" data-bbox="62.134 36.285 387.731 439.429" style=""><g transform="matrix(0.8582606810699, 0, 0, 0.8582606810699, 36.28527055711261, 36.28527219411491)"><path d="M431.587 49.191c-31.624 30.42-73.488 40.158-117.46 40.158h-9.336
	c-23.491 0-46.079 3.313-67.464 9.638C135.228 128.2 60.235 222.468 60.235 333.904v86.739h177.092
	c134.927 0 244.555-109.628 244.555-244.555V0L431.587 49.191z" fill="#f9fafb" transform="matrix(1, 0, 0, 1, 0, 0)"></path><path d="M481.882 0v176.088c0 134.927-109.628 244.555-244.555 244.555V98.987
	c21.385-6.326 43.973-9.638 67.464-9.638h9.336c43.973 0 85.836-9.738 117.46-40.158L481.882 0z" fill="#e5e7eb" transform="matrix(1, 0, 0, 1, 0, 0)"></path><path d="M271.059 300.173v30.118h-89.75C105.412 383.599 60.235 424.658 60.235 512H30.118
	c0-102.401 55.717-151.291 135.529-207.309v-79.813h30.118v58.729c13.252-9.035 27.107-18.673 41.562-29.215
	c17.469-12.648 35.84-26.202 54.513-41.261l18.673 23.493c-25.599 20.48-50.295 38.55-73.186 54.814
	c-4.216 3.011-8.434 5.722-12.648 8.733L271.059 300.173L271.059 300.173z" fill="#d1d5db" transform="matrix(1, 0, 0, 1, 0, 0)"></path><path fill="#d1d5db" transform="matrix(1, 0, 0, 1, 0, 0)" data-type="rect" data-x="237.327" data-y="300.173" data-width="33.732" data-height="30.118" d="M237.327 300.173H271.05899999999997 V330.291 H237.327 Z"></path><path d="M310.513 236.624c-25.599 20.48-50.295 38.55-73.186 54.814v-37.046
		c17.469-12.648 35.84-26.202 54.513-41.261L310.513 236.624z" fill="#d1d5db" transform="matrix(1, 0, 0, 1, 0, 0)"></path></g></svg>