<svg version="1.0" xmlns="http://www.w3.org/2000/svg"
 width="1200.000000pt" height="1200.000000pt" viewBox="0 0 1200.000000 1200.000000"

 preserveAspectRatio="xMidYMid meet"  background="#fff">


<g transform="translate(0.000000,1200.000000) scale(0.100000,-0.100000)"
fill="#000000" stroke="none">
<path fill="#a50064" d="M698 11970 c-311 -53 -561 -279 -650 -587 l-23 -78 0 -5305 0 -5305
23 -78 c81 -279 290 -488 569 -569 l78 -23 5305 0 5305 0 78 23 c279 81 488
290 569 569 l23 78 0 5305 0 5305 -23 78 c-80 276 -284 482 -564 569 l-73 23
-5285 1 c-2907 1 -5306 -2 -5332 -6z m2809 -2195 c165 -36 326 -103 452 -188
l64 -43 65 43 c128 86 293 154 462 190 119 25 382 25 500 -1 258 -56 466 -169
651 -355 179 -179 276 -350 346 -606 l28 -100 3 -1177 3 -1178 -496 0 -495 0
0 1106 c0 794 -3 1117 -11 1144 -18 59 -78 130 -139 164 -49 28 -64 31 -135
31 -67 0 -88 -5 -131 -27 -53 -28 -101 -76 -131 -131 -17 -30 -18 -105 -23
-1157 l-5 -1125 -495 0 -495 0 -5 1125 c-5 1052 -6 1127 -23 1157 -30 55 -78
103 -131 131 -69 36 -189 38 -252 5 -67 -36 -101 -70 -133 -135 l-31 -61 0
-1114 0 -1113 -495 0 -495 0 0 1133 c0 1253 -1 1226 65 1424 156 465 551 794
1050 873 85 13 346 4 432 -15z m5129 -9 c495 -103 909 -405 1161 -847 99 -173
177 -414 203 -622 18 -142 8 -433 -20 -562 -151 -712 -711 -1241 -1435 -1356
-103 -17 -397 -17 -500 0 -359 57 -673 210 -931 454 -258 244 -428 549 -504
902 -34 155 -39 460 -12 620 66 382 232 699 503 960 147 142 252 216 428 304
168 85 373 147 567 171 128 16 405 4 540 -24z m-5176 -4161 c169 -28 345 -96
493 -191 37 -24 70 -44 73 -44 3 0 31 17 62 39 118 79 250 137 407 177 139 36
359 44 506 19 478 -80 866 -411 1018 -870 62 -189 61 -165 61 -1417 l0 -1138
-490 0 -489 0 -3 1118 -3 1117 -23 47 c-52 103 -134 158 -248 166 -61 4 -80 1
-125 -20 -73 -33 -109 -66 -144 -130 l-30 -53 -5 -1120 -5 -1120 -492 -3 -493
-2 0 1098 c0 1212 3 1158 -63 1243 -17 23 -57 56 -87 73 -50 28 -63 31 -140
31 -76 0 -91 -3 -139 -30 -29 -16 -69 -49 -87 -74 -67 -87 -64 -30 -64 -1243
l0 -1098 -495 0 -496 0 4 1163 c3 1140 3 1164 24 1252 124 531 525 917 1048
1009 108 19 309 19 425 1z m5083 -1 c214 -31 445 -112 625 -219 133 -79 239
-165 363 -292 245 -253 400 -558 459 -908 20 -114 22 -154 17 -330 -7 -283
-48 -454 -163 -695 -415 -865 -1459 -1224 -2316 -795 -471 235 -806 670 -919
1193 -15 73 -22 147 -26 297 -5 175 -2 216 16 328 61 353 213 656 460 910 173
178 334 292 545 385 121 53 306 107 436 126 132 20 367 20 503 0z"/>
<path fill="#a50064" d="M8146 8793 c-259 -55 -459 -236 -546 -493 -31 -93 -39 -270 -15 -376
46 -214 190 -396 390 -495 114 -56 189 -73 320 -73 131 0 206 17 320 73 198
98 332 265 386 481 28 111 23 290 -11 390 -123 362 -481 571 -844 493z"/>
<path fill="#a50064" d="M8122 4611 c-40 -10 -112 -38 -160 -61 -71 -35 -104 -60 -177 -134
-149 -150 -215 -306 -215 -511 0 -285 153 -532 405 -655 106 -52 197 -72 320
-72 124 0 215 20 320 72 369 182 513 625 323 993 -61 118 -191 247 -308 305
-162 81 -343 103 -508 63z"/>
</g>
</svg>