<?xml version="1.0"?>
<svg xmlns="http://www.w3.org/2000/svg" viewBox="0 0 32 32" width="512" height="512"><g id="a7a247c6-651d-435b-ad28-bd4ab32f6bff" data-name="Layer 12"><path d="M29,20a1,1,0,0,1-1-1V13a1,1,0,0,1,2,0v6A1,1,0,0,1,29,20Zm1-10V9.5A2.5,2.5,0,0,0,27.5,7h-5a.5.5,0,0,1,0-1h5A2.5,2.5,0,0,0,30,3.5V3a1,1,0,0,0-2,0v.5a.5.5,0,0,1-.5.5h-5a2.5,2.5,0,0,0,0,5h5a.5.5,0,0,1,.5.5V10a1,1,0,0,0,2,0Zm-.29,19.71a1,1,0,0,1-1.42,0L18.58,20H3a1,1,0,0,1-1-1V13a1,1,0,0,1,1-1h7.58L2.29,3.71A1,1,0,0,1,3.71,2.29L13.42,12H26a1,1,0,0,1,1,1v6a1,1,0,0,1-1,1H21.42l8.29,8.29A1,1,0,0,1,29.71,29.71ZM15.42,14l4,4H25V14ZM7,14H4v4H7Zm9.58,4-4-4H9v4Z"/></g></svg>
