<svg id="Layer_1" enable-background="new 0 0 48 48" height="512" viewBox="0 0 48 48" width="512" xmlns="http://www.w3.org/2000/svg"><g><g><path d="m24 47.5c-13 0-23.5-10.5-23.5-23.5s10.5-23.5 23.5-23.5 23.5 10.5 23.5 23.5-10.5 23.5-23.5 23.5zm0-43.1c-10.8 0-19.6 8.8-19.6 19.6s8.8 19.6 19.6 19.6 19.6-8.8 19.6-19.6-8.8-19.6-19.6-19.6z"/></g><g><g><path d="m31.3 15.9c1.3 1.1 1.9 2.8 1.9 5.1s-.7 3.9-2 5-3.4 1.6-6.1 1.6h-2.5v6.2c0 1.1-.9 2.1-2.1 2.1-1.1 0-2.1-.9-2.1-2.1v-17.7c0-1.1.9-1.9 1.9-1.9h4.6c3.1 0 5.2.6 6.4 1.7zm-3 7.2c.5-.6.7-1.4.7-2.4s-.3-1.8-1-2.3c-.6-.4-1.6-.7-3-.7h-2.4v6.3h2.8c1.5 0 2.4-.3 2.9-.9z"/></g></g></g></svg>