<svg height="512" viewBox="0 0 60 60" width="512" xmlns="http://www.w3.org/2000/svg"><g id="Page-1" fill="none" fill-rule="evenodd"><g id="019---Swimming-Pool" fill="rgb(0,0,0)" fill-rule="nonzero"><path id="Shape" d="m47.815 9h-10.815v-8c0-.55228475-.4477153-1-1-1s-1 .44771525-1 1v3h-10v-3c0-.55228475-.4477153-1-1-1s-1 .44771525-1 1v8h-10.815c-1.4242903.00395353-2.65098366 1.0053359-2.94 2.4l-9.183 45c-.18012368.8824217.04571937 1.7990819.61515877 2.4968293s1.42222339 1.1027541 2.32284123 1.1031707h54c.900793-.0001164 1.7538585-.4049955 2.3235249-1.1027835.5696664-.6977881.7956337-1.6146232.6154751-2.4972165l-9.183-45c-.2890936-1.3950306-1.516334-2.39651884-2.941-2.4zm-22.815-3h10v3h-10zm10 8h-10v-3h10zm22.979 42.8c.0600296.2940834-.01521.5995785-.2049475.8321474-.1897374.232569-.4739049.3676137-.7740525.3678526h-54c-.3003227.0000613-.58477174-.1348558-.77473623-.3674654-.1899645-.2326096-.26532832-.5382796-.20526377-.8325346l9.183-45c.0951286-.4660347.5053558-.8005727.981-.8h10.816v8c0 .5522847.4477153 1 1 1s1-.4477153 1-1v-3h10v3c0 .5522847.4477153 1 1 1s1-.4477153 1-1v-8h10.815c.4756442-.0005727.8858714.3339653.981.8z"/><path id="Shape" d="m45.366 13h-5.366c-.5522847 0-1 .4477153-1 1s.4477153 1 1 1h5.366l7.959 39h-46.65l7.959-39h5.366c.5522847 0 1-.4477153 1-1s-.4477153-1-1-1h-5.366c-.9494718.002212-1.7672135.670097-1.959 1.6l-7.959 39c-.12009409.5883383.03050935 1.1995034.41021129 1.6646819s.94831844.7351404 1.54878871.7353181h46.65c.6004703-.0001777 1.1690868-.2701396 1.5487887-.7353181s.5303054-1.0763436.4102113-1.6646819l-7.959-39c-.1900323-.9309644-1.0088384-1.5997188-1.959-1.6z"/><path id="Shape" d="m19.9 23.553c-.187968-.3152706-.5279475-.5083906-.895-.5083906s-.707032.19312-.895.5083906c-.3941115.8248266-1.1985756 1.3765136-2.11 1.447-.5522847 0-1 .4477153-1 1s.4477153 1 1 1c1.1257333-.050131 2.1936265-.5128847 3-1.3.8063735.7871153 1.8742667 1.249869 3 1.3.5464721.0000069.9902484-.4415349.993-.988.0066943-.5496107-.4314469-1.0015974-.981-1.012-.9122315-.0695939-1.7177007-.621447-2.112-1.447z"/><path id="Shape" d="m28 26c1.1257333-.050131 2.1936265-.5128847 3-1.3.8063735.7871153 1.8742667 1.249869 3 1.3.5464721.0000069.9902484-.4415349.993-.988.0066943-.5496107-.4314469-1.0015974-.981-1.012-.9122315-.0695939-1.7177007-.621447-2.112-1.447-.187968-.3152706-.5279475-.5083906-.895-.5083906s-.707032.19312-.895.5083906c-.3941115.8248266-1.1985756 1.3765136-2.11 1.447-.5522847 0-1 .4477153-1 1s.4477153 1 1 1z"/><path id="Shape" d="m39.993 36.012c.0066943-.5496107-.4314469-1.0015974-.981-1.012-.9122315-.0695939-1.7177007-.621447-2.112-1.447-.187968-.3152706-.5279475-.5083906-.895-.5083906s-.707032.19312-.895.5083906c-.3941115.8248266-1.1985756 1.3765136-2.11 1.447-.5522847 0-1 .4477153-1 1s.4477153 1 1 1c1.1257333-.050131 2.1936265-.5128847 3-1.3.8063735.7871153 1.8742667 1.249869 3 1.3.5464721.0000069.9902484-.4415349.993-.988z"/><path id="Shape" d="m42 50c1.1257333-.050131 2.1936265-.5128847 3-1.3.8063735.7871153 1.8742667 1.249869 3 1.3.5464721.0000069.9902484-.4415349.993-.988.0066943-.5496107-.4314469-1.0015974-.981-1.012-.9122315-.0695939-1.7177007-.621447-2.112-1.447-.187968-.3152706-.5279475-.5083906-.895-.5083906s-.707032.19312-.895.5083906c-.3941115.8248266-1.1985756 1.3765136-2.11 1.447-.5522847 0-1 .4477153-1 1s.4477153 1 1 1z"/><path id="Shape" d="m16.9 45.553c-.187968-.3152706-.5279475-.5083906-.895-.5083906s-.707032.19312-.895.5083906c-.3941115.8248266-1.1985756 1.3765136-2.11 1.447-.5522847 0-1 .4477153-1 1s.4477153 1 1 1c1.1257333-.050131 2.1936265-.5128847 3-1.3.8063735.7871153 1.8742667 1.249869 3 1.3.5464721.0000069.9902484-.4415349.993-.988.0066943-.5496107-.4314469-1.0015974-.981-1.012-.9122315-.0695939-1.7177007-.621447-2.112-1.447z"/><path id="Shape" d="m40 43c1.1257333-.050131 2.1936265-.5128847 3-1.3.8063735.7871153 1.8742667 1.249869 3 1.3.5464721.0000069.9902484-.4415349.993-.988.0066943-.5496107-.4314469-1.0015974-.981-1.012-.9122315-.0695939-1.7177007-.621447-2.112-1.447-.187968-.3152706-.5279475-.5083906-.895-.5083906s-.707032.19312-.895.5083906c-.3941115.8248266-1.1985756 1.3765136-2.11 1.447-.5522847 0-1 .4477153-1 1s.4477153 1 1 1z"/><path id="Shape" d="m19.012 38c-.9122315-.0695939-1.7177007-.621447-2.112-1.447-.187968-.3152706-.5279475-.5083906-.895-.5083906s-.707032.19312-.895.5083906c-.3941115.8248266-1.1985756 1.3765136-2.11 1.447-.5522847 0-1 .4477153-1 1s.4477153 1 1 1c1.1257333-.050131 2.1936265-.5128847 3-1.3.8063735.7871153 1.8742667 1.249869 3 1.3.5464721.0000069.9902484-.4415349.993-.988.0066943-.5496107-.4314469-1.0015974-.981-1.012z"/><path id="Shape" d="m21 35c1.1257333-.050131 2.1936265-.5128847 3-1.3.8063735.7871153 1.8742667 1.249869 3 1.3.5464721.0000069.9902484-.4415349.993-.988.0066943-.5496107-.4314469-1.0015974-.981-1.012-.9122315-.0695939-1.7177007-.621447-2.112-1.447-.187968-.3152706-.5279475-.5083906-.895-.5083906s-.707032.19312-.895.5083906c-.3941115.8248266-1.1985756 1.3765136-2.11 1.447-.5522847 0-1 .4477153-1 1s.4477153 1 1 1z"/><path id="Shape" d="m39 30c1.1257333-.050131 2.1936265-.5128847 3-1.3.8063735.7871153 1.8742667 1.249869 3 1.3.5464721.0000069.9902484-.4415349.993-.988.0066943-.5496107-.4314469-1.0015974-.981-1.012-.9122315-.0695939-1.7177007-.621447-2.112-1.447-.187968-.3152706-.5279475-.5083906-.895-.5083906s-.707032.19312-.895.5083906c-.3941115.8248266-1.1985756 1.3765136-2.11 1.447-.5522847 0-1 .4477153-1 1s.4477153 1 1 1z"/><path id="Shape" d="m25 43c1.1257333-.050131 2.1936265-.5128847 3-1.3.8063735.7871153 1.8742667 1.249869 3 1.3.5464721.0000069.9902484-.4415349.993-.988.0066943-.5496107-.4314469-1.0015974-.981-1.012-.9122315-.0695939-1.7177007-.621447-2.112-1.447-.187968-.3152706-.5279475-.5083906-.895-.5083906s-.707032.19312-.895.5083906c-.3941115.8248266-1.1985756 1.3765136-2.11 1.447-.5522847 0-1 .4477153-1 1s.4477153 1 1 1z"/><path id="Shape" d="m30 50c1.1257333-.050131 2.1936265-.5128847 3-1.3.8063735.7871153 1.8742667 1.249869 3 1.3.5464721.0000069.9902484-.4415349.993-.988.0066943-.5496107-.4314469-1.0015974-.981-1.012-.9122315-.0695939-1.7177007-.621447-2.112-1.447-.187968-.3152706-.5279475-.5083906-.895-.5083906s-.707032.19312-.895.5083906c-.3941115.8248266-1.1985756 1.3765136-2.11 1.447-.5522847 0-1 .4477153-1 1s.4477153 1 1 1z"/></g></g></svg>