<?xml version="1.0" encoding="UTF-8"?>
<!DOCTYPE svg PUBLIC "-//W3C//DTD SVG 1.1//EN" "http://www.w3.org/Graphics/SVG/1.1/DTD/svg11.dtd">
<svg xmlns="http://www.w3.org/2000/svg" version="1.1" width="2045px" height="2045px" style="shape-rendering:geometricPrecision; text-rendering:geometricPrecision; image-rendering:optimizeQuality; fill-rule:evenodd; clip-rule:evenodd" xmlns:xlink="http://www.w3.org/1999/xlink">
<g><path style="opacity:1" fill="#fefefe" d="M -0.5,-0.5 C 681.167,-0.5 1362.83,-0.5 2044.5,-0.5C 2044.5,681.167 2044.5,1362.83 2044.5,2044.5C 1362.83,2044.5 681.167,2044.5 -0.5,2044.5C -0.5,1362.83 -0.5,681.167 -0.5,-0.5 Z"/></g>
<g><path style="opacity:1" fill="#015aa9" d="M 1093.5,535.5 C 1085.17,544.5 1076.5,553.167 1067.5,561.5C 1057.7,551.202 1047.7,541.035 1037.5,531C 1029.64,527.681 1023.8,529.848 1020,537.5C 1019.16,541.12 1019.83,544.454 1022,547.5C 1031.86,557.637 1041.69,567.637 1051.5,577.5C 1041.17,588.5 1030.5,599.167 1019.5,609.5C 987.752,576.251 955.418,543.417 922.5,511C 878.828,476.07 830.494,467.57 777.5,485.5C 771.553,493.035 772.553,499.535 780.5,505C 783.167,505.667 785.833,505.667 788.5,505C 835.531,492.003 877.197,501.67 913.5,534C 943.34,564.673 973.34,595.173 1003.5,625.5C 993.5,636.167 983.167,646.5 972.5,656.5C 942.673,627.507 913.34,598.007 884.5,568C 865.561,549.686 842.894,541.686 816.5,544C 793.11,547.74 774.61,559.24 761,578.5C 747.393,601.193 744.726,625.193 753,650.5C 756.039,658.914 760.373,666.58 766,673.5C 787.887,695.387 809.721,717.221 831.5,739C 841.035,741.077 846.701,737.41 848.5,728C 848.091,725.679 847.257,723.513 846,721.5C 824.305,700.139 802.971,678.472 782,656.5C 764.137,628.032 767.303,602.199 791.5,579C 815.659,562.23 839.659,562.563 863.5,580C 894.758,610.757 925.425,641.923 955.5,673.5C 945.5,684.167 935.167,694.5 924.5,704.5C 894.422,673.922 864.089,643.422 833.5,613C 825.869,609.56 820.035,611.393 816,618.5C 814.814,623.368 815.814,627.702 819,631.5C 848.701,661.368 878.535,691.035 908.5,720.5C 887.609,742.892 865.609,764.059 842.5,784C 836.471,788.347 830.138,792.18 823.5,795.5C 794.258,764.757 764.425,734.423 734,704.5C 701.389,663.286 695.055,618.286 715,569.5C 718.667,563.167 722.333,556.833 726,550.5C 727.924,539.756 723.424,534.59 712.5,535C 709.898,535.883 707.731,537.383 706,539.5C 681.498,576.691 674.498,617.024 685,660.5C 691.004,681.178 700.671,699.844 714,716.5C 743.007,746.34 772.174,776.007 801.5,805.5C 785.223,812.026 768.223,816.026 750.5,817.5C 725.421,792.59 700.921,767.257 677,741.5C 640.125,692.142 628.125,637.142 641,576.5C 660.477,509.023 703.31,463.523 769.5,440C 844.922,420.27 910.589,437.27 966.5,491C 980.416,491.663 984.916,485.496 980,472.5C 927.554,422.241 865.054,401.741 792.5,411C 717.881,425.706 664.048,467.206 631,535.5C 603.889,601.731 607.223,666.398 641,729.5C 645.837,737.844 651.17,745.844 657,753.5C 676.728,774.724 696.561,795.724 716.5,816.5C 684.378,812.261 655.378,800.595 629.5,781.5C 571.895,724.395 514.395,667.062 457,609.5C 442.587,590.185 439.587,569.185 448,546.5C 450.606,541.565 453.606,536.898 457,532.5C 549.5,440 642,347.5 734.5,255C 760.213,236.016 786.213,235.682 812.5,254C 906.368,347.701 1000.03,441.535 1093.5,535.5 Z"/></g>
<g><path style="opacity:1" fill="#ed1c24" d="M 1375.5,405.5 C 1371.83,406.167 1368.17,406.833 1364.5,407.5C 1351.58,409.3 1340.25,414.467 1330.5,423C 1176.81,575.029 1022.81,726.695 868.5,878C 848.81,895.676 825.81,906.676 799.5,911C 781.622,912.947 764.622,909.947 748.5,902C 708.27,862.271 668.603,822.104 629.5,781.5C 655.378,800.595 684.378,812.261 716.5,816.5C 727.752,817.477 739.086,817.811 750.5,817.5C 768.223,816.026 785.223,812.026 801.5,805.5C 809.367,803.231 816.701,799.898 823.5,795.5C 830.138,792.18 836.471,788.347 842.5,784C 865.609,764.059 887.609,742.892 908.5,720.5C 914.167,715.5 919.5,710.167 924.5,704.5C 935.167,694.5 945.5,684.167 955.5,673.5C 961.5,668.167 967.167,662.5 972.5,656.5C 983.167,646.5 993.5,636.167 1003.5,625.5C 1009.17,620.5 1014.5,615.167 1019.5,609.5C 1030.5,599.167 1041.17,588.5 1051.5,577.5C 1057.17,572.5 1062.5,567.167 1067.5,561.5C 1076.5,553.167 1085.17,544.5 1093.5,535.5C 1123.47,506.035 1153.3,476.368 1183,446.5C 1208.43,417.732 1234.6,389.565 1261.5,362C 1278.69,349.744 1297.35,347.077 1317.5,354C 1322.49,356.161 1327.16,358.828 1331.5,362C 1346.03,376.702 1360.7,391.202 1375.5,405.5 Z"/></g>
<g><path style="opacity:1" fill="#f89a9d" d="M 1375.5,405.5 C 1376.04,405.56 1376.38,405.893 1376.5,406.5C 1372.55,407.491 1368.55,407.824 1364.5,407.5C 1368.17,406.833 1371.83,406.167 1375.5,405.5 Z"/></g>
<g><path style="opacity:1" fill="#009cd9" d="M 750.5,817.5 C 739.086,817.811 727.752,817.477 716.5,816.5C 696.561,795.724 676.728,774.724 657,753.5C 651.17,745.844 645.837,737.844 641,729.5C 607.223,666.398 603.889,601.731 631,535.5C 664.048,467.206 717.881,425.706 792.5,411C 865.054,401.741 927.554,422.241 980,472.5C 984.916,485.496 980.416,491.663 966.5,491C 910.589,437.27 844.922,420.27 769.5,440C 703.31,463.523 660.477,509.023 641,576.5C 628.125,637.142 640.125,692.142 677,741.5C 700.921,767.257 725.421,792.59 750.5,817.5 Z"/></g>
<g><path style="opacity:1" fill="#ed1c24" d="M 939.5,1092.5 C 939.611,1091.88 939.944,1091.38 940.5,1091C 893.167,1043.67 845.833,996.333 798.5,949C 797.563,948.308 796.897,948.475 796.5,949.5C 788.702,942.202 781.035,934.702 773.5,927C 812.123,929.347 846.123,918.013 875.5,893C 1031.5,739.667 1187.5,586.333 1343.5,433C 1361.47,420.282 1380.14,419.282 1399.5,430C 1465.03,495.194 1530.19,560.694 1595,626.5C 1606.87,648.278 1606.2,669.611 1593,690.5C 1458.17,828.664 1322.67,966.164 1186.5,1103C 1137.6,1141.73 1082.6,1154.06 1021.5,1140C 989.987,1131.09 962.654,1115.25 939.5,1092.5 Z"/></g>
<g><path style="opacity:1" fill="#009cd9" d="M 1019.5,609.5 C 1014.5,615.167 1009.17,620.5 1003.5,625.5C 973.34,595.173 943.34,564.673 913.5,534C 877.197,501.67 835.531,492.003 788.5,505C 785.833,505.667 783.167,505.667 780.5,505C 772.553,499.535 771.553,493.035 777.5,485.5C 830.494,467.57 878.828,476.07 922.5,511C 955.418,543.417 987.752,576.251 1019.5,609.5 Z"/></g>
<g><path style="opacity:1" fill="#019cd9" d="M 1067.5,561.5 C 1062.5,567.167 1057.17,572.5 1051.5,577.5C 1041.69,567.637 1031.86,557.637 1022,547.5C 1019.83,544.454 1019.16,541.12 1020,537.5C 1023.8,529.848 1029.64,527.681 1037.5,531C 1047.7,541.035 1057.7,551.202 1067.5,561.5 Z"/></g>
<g><path style="opacity:1" fill="#009cd9" d="M 823.5,795.5 C 816.701,799.898 809.367,803.231 801.5,805.5C 772.174,776.007 743.007,746.34 714,716.5C 700.671,699.844 691.004,681.178 685,660.5C 674.498,617.024 681.498,576.691 706,539.5C 707.731,537.383 709.898,535.883 712.5,535C 723.424,534.59 727.924,539.756 726,550.5C 722.333,556.833 718.667,563.167 715,569.5C 695.055,618.286 701.389,663.286 734,704.5C 764.425,734.423 794.258,764.757 823.5,795.5 Z"/></g>
<g><path style="opacity:1" fill="#009cd9" d="M 972.5,656.5 C 967.167,662.5 961.5,668.167 955.5,673.5C 925.425,641.923 894.758,610.757 863.5,580C 839.659,562.563 815.659,562.23 791.5,579C 767.303,602.199 764.137,628.032 782,656.5C 802.971,678.472 824.305,700.139 846,721.5C 847.257,723.513 848.091,725.679 848.5,728C 846.701,737.41 841.035,741.077 831.5,739C 809.721,717.221 787.887,695.387 766,673.5C 760.373,666.58 756.039,658.914 753,650.5C 744.726,625.193 747.393,601.193 761,578.5C 774.61,559.24 793.11,547.74 816.5,544C 842.894,541.686 865.561,549.686 884.5,568C 913.34,598.007 942.673,627.507 972.5,656.5 Z"/></g>
<g><path style="opacity:1" fill="#009cd9" d="M 924.5,704.5 C 919.5,710.167 914.167,715.5 908.5,720.5C 878.535,691.035 848.701,661.368 819,631.5C 815.814,627.702 814.814,623.368 816,618.5C 820.035,611.393 825.869,609.56 833.5,613C 864.089,643.422 894.422,673.922 924.5,704.5 Z"/></g>
<g><path style="opacity:1" fill="#f03833" d="M 939.5,1092.5 C 891.5,1045.17 843.833,997.5 796.5,949.5C 796.897,948.475 797.563,948.308 798.5,949C 845.833,996.333 893.167,1043.67 940.5,1091C 939.944,1091.38 939.611,1091.88 939.5,1092.5 Z"/></g>
<g><path style="opacity:1" fill="#fbdbdc" d="M 379.5,1230.5 C 345.996,1230.17 312.662,1230.5 279.5,1231.5C 278.957,1231.44 278.624,1231.11 278.5,1230.5C 312.331,1229.17 345.998,1229.17 379.5,1230.5 Z"/></g>
<g><path style="opacity:1" fill="#f2565c" d="M 521.5,1231.5 C 546.337,1230.17 571.337,1230.17 596.5,1231.5C 596.376,1232.11 596.043,1232.44 595.5,1232.5C 571.006,1231.5 546.339,1231.17 521.5,1231.5 Z"/></g>
<g><path style="opacity:1" fill="#5793c6" d="M 1124.5,1232.5 C 1068.33,1232.17 1012.33,1232.5 956.5,1233.5C 955.957,1233.44 955.624,1233.11 955.5,1232.5C 1012,1231.17 1068.33,1231.17 1124.5,1232.5 Z"/></g>
<g><path style="opacity:1" fill="#4689c0" d="M 1541.5,1232.5 C 1504.66,1232.17 1468,1232.5 1431.5,1233.5C 1430.71,1233.22 1430.04,1232.72 1429.5,1232C 1467,1231.17 1504.34,1231.34 1541.5,1232.5 Z"/></g>
<g><path style="opacity:1" fill="#4689c1" d="M 1766.5,1233.5 C 1732.34,1232.5 1698,1232.17 1663.5,1232.5C 1679.93,1231.83 1697.09,1231.49 1715,1231.5C 1732.5,1231.83 1750,1232.17 1767.5,1232.5C 1767.38,1233.11 1767.04,1233.44 1766.5,1233.5 Z"/></g>
<g><path style="opacity:1" fill="#ed1c24" d="M 379.5,1230.5 C 407.734,1310.7 435.901,1391.03 464,1471.5C 488.259,1404.64 512.259,1337.64 536,1270.5C 536.667,1267.5 536.667,1264.5 536,1261.5C 531.393,1251.29 526.56,1241.29 521.5,1231.5C 546.339,1231.17 571.006,1231.5 595.5,1232.5C 558.307,1342.24 520.807,1451.91 483,1561.5C 482.481,1562.52 481.647,1563.18 480.5,1563.5C 451.411,1558.29 425.744,1546.12 403.5,1527C 392.202,1515.35 383.702,1501.85 378,1486.5C 348.333,1407.83 318.667,1329.17 289,1250.5C 286.109,1243.97 282.942,1237.64 279.5,1231.5C 312.662,1230.5 345.996,1230.17 379.5,1230.5 Z"/></g>
<g><path style="opacity:1" fill="#ed1d24" d="M 863.5,1434.5 C 863.56,1435.04 863.893,1435.38 864.5,1435.5C 865.831,1379.67 865.831,1324 864.5,1268.5C 863.864,1264.22 862.364,1260.22 860,1256.5C 854.304,1248.3 848.804,1239.97 843.5,1231.5C 874.828,1230.33 906.161,1230.17 937.5,1231C 930.333,1240.17 923.167,1249.33 916,1258.5C 914.295,1260.58 913.128,1262.91 912.5,1265.5C 911.501,1365 911.167,1464.67 911.5,1564.5C 910.5,1564.5 909.5,1564.5 908.5,1564.5C 866.746,1561.38 833.579,1543.05 809,1509.5C 767.001,1454.67 724.834,1400.01 682.5,1345.5C 682.44,1344.96 682.107,1344.62 681.5,1344.5C 680.169,1403.33 680.169,1462 681.5,1520.5C 681.841,1523.52 683.007,1526.18 685,1528.5C 692.167,1537.67 699.333,1546.83 706.5,1556C 675.167,1556.67 643.833,1556.67 612.5,1556C 619.762,1545.08 626.595,1533.91 633,1522.5C 633.667,1439.17 633.667,1355.83 633,1272.5C 624.5,1258.67 616,1244.83 607.5,1231C 640.505,1230.17 673.505,1230.33 706.5,1231.5C 759.24,1298.9 811.573,1366.57 863.5,1434.5 Z"/></g>
<g><path style="opacity:1" fill="#015aaa" d="M 956.5,1233.5 C 1012.33,1232.5 1068.33,1232.17 1124.5,1232.5C 1169,1239.5 1195.16,1265.16 1203,1309.5C 1207.33,1338.21 1200.67,1363.88 1183,1386.5C 1166.42,1404.54 1145.92,1414.71 1121.5,1417C 1106.48,1417.46 1091.48,1417.79 1076.5,1418C 1097.29,1406.86 1110.12,1389.7 1115,1366.5C 1120.47,1343.16 1117.8,1320.82 1107,1299.5C 1101,1288.32 1091.84,1281.65 1079.5,1279.5C 1073.69,1278.51 1067.69,1278.18 1061.5,1278.5C 1061.17,1360 1061.5,1441.34 1062.5,1522.5C 1063.93,1528.04 1066.43,1533.04 1070,1537.5C 1074.48,1543.61 1079.31,1549.44 1084.5,1555C 1042.83,1555.67 1001.17,1555.67 959.5,1555C 967.514,1546.15 973.347,1535.98 977,1524.5C 977.667,1435.83 977.667,1347.17 977,1258.5C 975.861,1254.89 974.194,1251.55 972,1248.5C 966.965,1243.3 961.798,1238.3 956.5,1233.5 Z"/></g>
<g><path style="opacity:1" fill="#025baa" d="M 1499.5,1554.5 C 1452.5,1555.83 1405.5,1555.83 1358.5,1554.5C 1369.39,1545.69 1374.39,1534.19 1373.5,1520C 1373.51,1514.78 1373.01,1509.61 1372,1504.5C 1366.07,1488.87 1360.24,1473.21 1354.5,1457.5C 1318.6,1456.17 1282.77,1456.17 1247,1457.5C 1240.46,1476.8 1234.12,1496.13 1228,1515.5C 1225.73,1530.18 1229.56,1542.85 1239.5,1553.5C 1209.83,1554.83 1180.17,1554.83 1150.5,1553.5C 1160.1,1544.73 1167.6,1534.39 1173,1522.5C 1201.34,1440.16 1229.67,1357.82 1258,1275.5C 1259.96,1267.18 1259.96,1258.84 1258,1250.5C 1255.27,1244.04 1251.77,1238.04 1247.5,1232.5C 1285.5,1231.17 1323.5,1231.17 1361.5,1232.5C 1396.76,1326.46 1431.93,1420.46 1467,1514.5C 1475.22,1529.92 1486.05,1543.25 1499.5,1554.5 Z"/></g>
<g><path style="opacity:1" fill="#015baa" d="M 1541.5,1232.5 C 1566.44,1273.28 1591.61,1313.95 1617,1354.5C 1618.82,1352.6 1620.82,1350.93 1623,1349.5C 1639.73,1325.1 1656.06,1300.44 1672,1275.5C 1679.01,1259.08 1676.18,1244.75 1663.5,1232.5C 1698,1232.17 1732.34,1232.5 1766.5,1233.5C 1726.55,1290.62 1686.39,1347.62 1646,1404.5C 1645.33,1446.5 1645.33,1488.5 1646,1530.5C 1652.7,1538.69 1659.53,1546.69 1666.5,1554.5C 1623.34,1555.5 1580,1555.83 1536.5,1555.5C 1542.12,1547.38 1547.95,1539.38 1554,1531.5C 1554.33,1488.83 1554,1446.16 1553,1403.5C 1516.67,1351.17 1480.33,1298.83 1444,1246.5C 1440.3,1241.64 1436.14,1237.3 1431.5,1233.5C 1468,1232.5 1504.66,1232.17 1541.5,1232.5 Z"/></g>
<g><path style="opacity:1" fill="#f9b9bb" d="M 912.5,1265.5 C 912.5,1365.5 912.5,1465.5 912.5,1565.5C 910.901,1565.77 909.568,1565.43 908.5,1564.5C 909.5,1564.5 910.5,1564.5 911.5,1564.5C 911.167,1464.67 911.501,1365 912.5,1265.5 Z"/></g>
<g><path style="opacity:1" fill="#ee363d" d="M 864.5,1268.5 C 865.831,1324 865.831,1379.67 864.5,1435.5C 863.893,1435.38 863.56,1435.04 863.5,1434.5C 864.499,1379.34 864.832,1324 864.5,1268.5 Z"/></g>
<g><path style="opacity:1" fill="#4787c0" d="M 1079.5,1279.5 C 1073.83,1279.5 1068.17,1279.5 1062.5,1279.5C 1062.5,1360.5 1062.5,1441.5 1062.5,1522.5C 1061.5,1441.34 1061.17,1360 1061.5,1278.5C 1067.69,1278.18 1073.69,1278.51 1079.5,1279.5 Z"/></g>
<g><path style="opacity:1" fill="#fcfdfe" d="M 1337.5,1413.5 C 1312.5,1414.83 1287.5,1414.83 1262.5,1413.5C 1274.38,1379.01 1286.55,1344.68 1299,1310.5C 1312.52,1344.56 1325.36,1378.9 1337.5,1413.5 Z"/></g>
<g><path style="opacity:1" fill="#f26569" d="M 682.5,1345.5 C 681.501,1403.66 681.168,1462 681.5,1520.5C 680.169,1462 680.169,1403.33 681.5,1344.5C 682.107,1344.62 682.44,1344.96 682.5,1345.5 Z"/></g>
<g><path style="opacity:1" fill="#4889c2" d="M 1262.5,1413.5 C 1287.5,1414.83 1312.5,1414.83 1337.5,1413.5C 1338.04,1413.56 1338.38,1413.89 1338.5,1414.5C 1312.83,1415.83 1287.17,1415.83 1261.5,1414.5C 1261.62,1413.89 1261.96,1413.56 1262.5,1413.5 Z"/></g>
<g><path style="opacity:1" fill="#649bcb" d="M 1150.5,1553.5 C 1180.17,1554.83 1209.83,1554.83 1239.5,1553.5C 1240.04,1553.56 1240.38,1553.89 1240.5,1554.5C 1210.17,1555.83 1179.83,1555.83 1149.5,1554.5C 1149.62,1553.89 1149.96,1553.56 1150.5,1553.5 Z"/></g>
<g><path style="opacity:1" fill="#a3c4e1" d="M 1358.5,1554.5 C 1405.5,1555.83 1452.5,1555.83 1499.5,1554.5C 1500.04,1554.56 1500.38,1554.89 1500.5,1555.5C 1452.83,1556.83 1405.17,1556.83 1357.5,1555.5C 1357.62,1554.89 1357.96,1554.56 1358.5,1554.5 Z"/></g>
<g><path style="opacity:1" fill="#a4c4e1" d="M 1666.5,1554.5 C 1667.04,1554.56 1667.38,1554.89 1667.5,1555.5C 1623.67,1556.83 1580,1556.83 1536.5,1555.5C 1580,1555.83 1623.34,1555.5 1666.5,1554.5 Z"/></g>
<g><path style="opacity:1" fill="#1ea0dc" d="M 913.5,1633.5 C 915.527,1633.34 917.527,1633.5 919.5,1634C 919.957,1634.41 920.291,1634.91 920.5,1635.5C 917.624,1640.09 914.624,1644.59 911.5,1649C 909.527,1649.5 907.527,1649.66 905.5,1649.5C 906.591,1643.32 909.258,1637.98 913.5,1633.5 Z"/></g>
<g><path style="opacity:1" fill="#20a1dc" d="M 1389.5,1641.5 C 1398.71,1640.54 1402.54,1644.54 1401,1653.5C 1398.2,1655.62 1396.2,1658.29 1395,1661.5C 1390.34,1664.53 1388.68,1663.2 1390,1657.5C 1393.17,1654.82 1395,1651.49 1395.5,1647.5C 1392.45,1647.68 1389.45,1647.85 1386.5,1648C 1384.74,1644.49 1385.74,1642.33 1389.5,1641.5 Z"/></g>
<g><path style="opacity:1" fill="#1ea1dc" d="M 422.5,1645.5 C 424.792,1645.24 426.959,1645.58 429,1646.5C 429.168,1655.85 429.668,1665.18 430.5,1674.5C 434.901,1669.55 440.401,1667.55 447,1668.5C 457.068,1667.36 464.068,1671.36 468,1680.5C 468.823,1695.41 468.657,1710.24 467.5,1725C 464.901,1725.77 462.401,1725.6 460,1724.5C 459.667,1710.83 459.333,1697.17 459,1683.5C 455.874,1677.84 451.041,1675.5 444.5,1676.5C 438.046,1676.15 433.213,1678.81 430,1684.5C 429.667,1697.83 429.333,1711.17 429,1724.5C 426.534,1725.78 424.034,1725.78 421.5,1724.5C 420.343,1698.88 420.176,1673.21 421,1647.5C 421.717,1646.96 422.217,1646.29 422.5,1645.5 Z"/></g>
<g><path style="opacity:1" fill="#1ca0dc" d="M 1134.5,1662.5 C 1131.5,1662.5 1128.5,1662.5 1125.5,1662.5C 1125.5,1677.17 1125.5,1691.83 1125.5,1706.5C 1125.01,1717.5 1119.34,1724 1108.5,1726C 1097.52,1728.58 1088.02,1726.08 1080,1718.5C 1079,1716.5 1078,1714.5 1077,1712.5C 1076.33,1702.5 1076.33,1692.5 1077,1682.5C 1080.64,1672.22 1087.97,1667.55 1099,1668.5C 1105.78,1667.54 1111.44,1669.54 1116,1674.5C 1116.5,1670.85 1116.67,1667.18 1116.5,1663.5C 1110.82,1663.67 1105.16,1663.5 1099.5,1663C 1098.17,1660.67 1098.17,1658.33 1099.5,1656C 1105.16,1655.5 1110.82,1655.33 1116.5,1655.5C 1116.34,1652.81 1116.5,1650.15 1117,1647.5C 1120,1644.83 1123,1644.83 1126,1647.5C 1126.5,1650.15 1126.66,1652.81 1126.5,1655.5C 1129.19,1655.34 1131.85,1655.5 1134.5,1656C 1135.81,1658.27 1135.81,1660.44 1134.5,1662.5 Z"/></g>
<g><path style="opacity:1" fill="#18a0dc" d="M 1519.5,1645.5 C 1521.79,1645.24 1523.96,1645.58 1526,1646.5C 1526.33,1655.83 1526.67,1665.17 1527,1674.5C 1531.65,1669.68 1537.32,1667.68 1544,1668.5C 1554.6,1667.29 1561.6,1671.62 1565,1681.5C 1565.82,1696.07 1565.66,1710.57 1564.5,1725C 1561.9,1725.77 1559.4,1725.6 1557,1724.5C 1556.67,1710.83 1556.33,1697.17 1556,1683.5C 1552.71,1678.11 1547.88,1675.77 1541.5,1676.5C 1534.72,1675.64 1529.89,1678.31 1527,1684.5C 1526.67,1697.83 1526.33,1711.17 1526,1724.5C 1523.53,1725.78 1521.03,1725.78 1518.5,1724.5C 1517.34,1698.88 1517.18,1673.21 1518,1647.5C 1518.72,1646.96 1519.22,1646.29 1519.5,1645.5 Z"/></g>
<g><path style="opacity:1" fill="#1ba0db" d="M 699.5,1647.5 C 702.32,1647.25 704.986,1647.75 707.5,1649C 710.123,1652.41 712.623,1655.91 715,1659.5C 715.483,1660.45 715.649,1661.45 715.5,1662.5C 713.473,1662.66 711.473,1662.5 709.5,1662C 707.326,1659 704.992,1656.16 702.5,1653.5C 699.898,1655.86 697.898,1658.69 696.5,1662C 694.098,1662.81 691.765,1662.65 689.5,1661.5C 691.886,1656.02 695.22,1651.36 699.5,1647.5 Z"/></g>
<g><path style="opacity:1" fill="#1aa0db" d="M 889.5,1647.5 C 892.32,1647.25 894.986,1647.75 897.5,1649C 900.123,1652.41 902.623,1655.91 905,1659.5C 905.483,1660.45 905.649,1661.45 905.5,1662.5C 903.473,1662.66 901.473,1662.5 899.5,1662C 897.326,1659 894.992,1656.16 892.5,1653.5C 890.058,1656.2 887.724,1659.03 885.5,1662C 883.421,1662.81 881.421,1662.64 879.5,1661.5C 881.886,1656.02 885.22,1651.36 889.5,1647.5 Z"/></g>
<g><path style="opacity:1" fill="#19a0db" d="M 379.5,1650.5 C 385.176,1650.33 390.843,1650.5 396.5,1651C 400.745,1651.54 404.579,1653.04 408,1655.5C 408.667,1657.5 408.667,1659.5 408,1661.5C 407.439,1662.02 406.772,1662.36 406,1662.5C 396.989,1659.19 387.822,1658.69 378.5,1661C 374.212,1663.29 371.378,1666.79 370,1671.5C 369.333,1682.5 369.333,1693.5 370,1704.5C 371.399,1710.9 375.233,1715.07 381.5,1717C 386.833,1717.67 392.167,1717.67 397.5,1717C 401.2,1716.09 404.867,1715.42 408.5,1715C 410.784,1720.74 408.784,1724.08 402.5,1725C 394.889,1726.48 387.222,1726.81 379.5,1726C 371.01,1724.34 365.176,1719.51 362,1711.5C 360.405,1697.56 360.072,1683.56 361,1669.5C 364.017,1659.98 370.184,1653.65 379.5,1650.5 Z"/></g>
<g><path style="opacity:1" fill="#2ca3dd" d="M 1349.5,1646.5 C 1358.27,1646.41 1360.27,1649.91 1355.5,1657C 1346.41,1657.43 1344.41,1653.93 1349.5,1646.5 Z"/></g>
<g><path style="opacity:1" fill="#95d6f0" d="M 1134.5,1662.5 C 1132.05,1663.47 1129.39,1663.81 1126.5,1663.5C 1126.83,1678.01 1126.5,1692.34 1125.5,1706.5C 1125.5,1691.83 1125.5,1677.17 1125.5,1662.5C 1128.5,1662.5 1131.5,1662.5 1134.5,1662.5 Z"/></g>
<g><path style="opacity:1" fill="#1ba0dc" d="M 1030.5,1663.5 C 1033.79,1663.12 1036.12,1664.45 1037.5,1667.5C 1035.3,1669.87 1033.3,1672.37 1031.5,1675C 1036.24,1683.18 1036.74,1691.68 1033,1700.5C 1028.82,1705.79 1023.32,1708.62 1016.5,1709C 1010.83,1709.33 1005.17,1709.67 999.5,1710C 996.833,1712 996.833,1714 999.5,1716C 1006.17,1716.33 1012.83,1716.67 1019.5,1717C 1035.77,1718.7 1040.93,1727.2 1035,1742.5C 1030.32,1747.51 1024.49,1750.01 1017.5,1750C 1008.37,1751.48 999.705,1750.15 991.5,1746C 989.959,1744.42 988.792,1742.59 988,1740.5C 986.168,1733.36 987.668,1727.19 992.5,1722C 986.538,1715.27 987.538,1709.77 995.5,1705.5C 988.884,1698.83 986.718,1690.83 989,1681.5C 993.066,1671.8 1000.4,1667.46 1011,1668.5C 1015.33,1668.33 1019.49,1669 1023.5,1670.5C 1026.19,1668.48 1028.52,1666.15 1030.5,1663.5 Z"/></g>
<g><path style="opacity:1" fill="#1aa0db" d="M 1330.5,1663.5 C 1333.86,1662.87 1335.86,1664.21 1336.5,1667.5C 1335.1,1670.41 1333.1,1672.91 1330.5,1675C 1332.62,1676.73 1334.12,1678.9 1335,1681.5C 1338.61,1697.39 1332.45,1706.56 1316.5,1709C 1310.83,1709.33 1305.17,1709.67 1299.5,1710C 1296.97,1712.08 1296.97,1714.08 1299.5,1716C 1310.86,1715.51 1321.86,1717.17 1332.5,1721C 1333.79,1722.41 1334.95,1723.91 1336,1725.5C 1336.84,1730.92 1336.51,1736.25 1335,1741.5C 1332.9,1745.93 1329.4,1748.43 1324.5,1749C 1314.72,1751.32 1305.05,1750.99 1295.5,1748C 1289.61,1745.07 1286.61,1740.24 1286.5,1733.5C 1286.78,1728.78 1288.78,1724.94 1292.5,1722C 1286.4,1715.17 1287.4,1709.67 1295.5,1705.5C 1292.75,1702.92 1290.59,1699.92 1289,1696.5C 1285.38,1678.35 1292.72,1669.02 1311,1668.5C 1315.85,1668.9 1320.69,1669.07 1325.5,1669C 1327.37,1667.3 1329.04,1665.46 1330.5,1663.5 Z"/></g>
<g><path style="opacity:1" fill="#19a0dc" d="M 495.5,1668.5 C 504.016,1667.89 512.349,1668.72 520.5,1671C 524.788,1673.29 527.622,1676.79 529,1681.5C 530.576,1690.09 530.91,1698.76 530,1707.5C 528.62,1717.88 522.787,1724.05 512.5,1726C 503.646,1727.6 495.313,1726.26 487.5,1722C 484.707,1718.92 482.54,1715.42 481,1711.5C 480.074,1701.09 480.408,1690.76 482,1680.5C 484.85,1674.51 489.35,1670.51 495.5,1668.5 Z"/></g>
<g><path style="opacity:1" fill="#159fdb" d="M 586.5,1668.5 C 592.509,1668.33 598.509,1668.5 604.5,1669C 610.235,1669.77 611.901,1672.77 609.5,1678C 604.729,1677.44 599.895,1676.94 595,1676.5C 587.589,1676.25 582.589,1679.58 580,1686.5C 574.41,1712.91 584.577,1723.08 610.5,1717C 612.124,1720.21 611.458,1722.87 608.5,1725C 601.556,1726.45 594.556,1726.79 587.5,1726C 578.973,1724.14 573.806,1718.97 572,1710.5C 571.333,1701.5 571.333,1692.5 572,1683.5C 574.351,1675.98 579.184,1670.98 586.5,1668.5 Z"/></g>
<g><path style="opacity:1" fill="#18a0dc" d="M 692.5,1668.5 C 701.016,1667.89 709.349,1668.72 717.5,1671C 726.091,1677.08 729.424,1685.42 727.5,1696C 728.774,1720.05 717.441,1730.05 693.5,1726C 684.328,1723.16 679.161,1717 678,1707.5C 677.333,1699.83 677.333,1692.17 678,1684.5C 679.139,1680.89 680.806,1677.55 683,1674.5C 685.848,1671.85 689.015,1669.85 692.5,1668.5 Z"/></g>
<g><path style="opacity:1" fill="#159fdb" d="M 753.5,1668.5 C 759.509,1668.33 765.509,1668.5 771.5,1669C 777.235,1669.77 778.901,1672.77 776.5,1678C 771.729,1677.44 766.895,1676.94 762,1676.5C 754.984,1676.19 749.984,1679.19 747,1685.5C 745.864,1694.67 746.531,1703.67 749,1712.5C 751.342,1715.75 754.509,1717.59 758.5,1718C 764.962,1718.6 771.295,1718.26 777.5,1717C 779.124,1720.21 778.458,1722.87 775.5,1725C 767.477,1726.92 759.477,1726.92 751.5,1725C 744.903,1722.74 740.736,1718.24 739,1711.5C 738.074,1701.09 738.408,1690.76 740,1680.5C 742.85,1674.51 747.35,1670.51 753.5,1668.5 Z"/></g>
<g><path style="opacity:1" fill="#169fdb" d="M 826.5,1668.5 C 833.175,1668.33 839.842,1668.5 846.5,1669C 849.308,1669.6 851.808,1670.76 854,1672.5C 854.743,1674.44 854.576,1676.27 853.5,1678C 845.234,1676.86 836.901,1676.53 828.5,1677C 824.895,1680.32 824.561,1683.98 827.5,1688C 835.045,1691.94 842.712,1695.61 850.5,1699C 856.22,1703.88 858.053,1710.05 856,1717.5C 854.5,1720.33 852.333,1722.5 849.5,1724C 839.96,1726.99 830.294,1727.33 820.5,1725C 815.885,1723.92 814.385,1721.09 816,1716.5C 816.561,1715.98 817.228,1715.64 818,1715.5C 825.963,1718.06 834.13,1718.9 842.5,1718C 849.618,1715.07 850.285,1711.07 844.5,1706C 837.167,1702.33 829.833,1698.67 822.5,1695C 816.78,1690.12 814.947,1683.95 817,1676.5C 819.362,1672.76 822.528,1670.09 826.5,1668.5 Z"/></g>
<g><path style="opacity:1" fill="#159fdb" d="M 882.5,1668.5 C 888.842,1668.33 895.175,1668.5 901.5,1669C 910.451,1670.95 915.617,1676.45 917,1685.5C 917.667,1693.5 917.667,1701.5 917,1709.5C 914.719,1718.78 908.886,1724.28 899.5,1726C 887.104,1729.2 877.27,1725.7 870,1715.5C 867.533,1705.32 866.867,1694.98 868,1684.5C 869.947,1676.39 874.78,1671.06 882.5,1668.5 Z"/></g>
<g><path style="opacity:1" fill="#179fdb" d="M 943.5,1668.5 C 950.906,1668.15 958.239,1668.65 965.5,1670C 970.757,1672.26 974.257,1676.09 976,1681.5C 976.667,1695.83 976.667,1710.17 976,1724.5C 973.333,1725.83 970.667,1725.83 968,1724.5C 967.667,1710.5 967.333,1696.5 967,1682.5C 966.052,1680.43 964.552,1678.93 962.5,1678C 956.903,1676.54 951.237,1676.21 945.5,1677C 942.829,1678.25 940.663,1680.08 939,1682.5C 937.57,1696.77 937.07,1711.11 937.5,1725.5C 934.881,1725.77 932.381,1725.44 930,1724.5C 929.333,1710.17 929.333,1695.83 930,1681.5C 932.442,1674.89 936.942,1670.56 943.5,1668.5 Z"/></g>
<g><path style="opacity:1" fill="#119fdb" d="M 1152.5,1668.5 C 1159.91,1668.15 1167.24,1668.65 1174.5,1670C 1179.25,1671.92 1182.92,1675.08 1185.5,1679.5C 1186.8,1678.91 1187.63,1677.91 1188,1676.5C 1188.5,1674.19 1188.66,1671.86 1188.5,1669.5C 1190.83,1669.5 1193.17,1669.5 1195.5,1669.5C 1195.61,1673.25 1195.11,1676.91 1194,1680.5C 1192.64,1683.36 1190.47,1685.36 1187.5,1686.5C 1186.67,1694.81 1186.17,1703.15 1186,1711.5C 1181.66,1722.43 1173.49,1727.43 1161.5,1726.5C 1149.84,1727.32 1142,1722.32 1138,1711.5C 1137.33,1701.83 1137.33,1692.17 1138,1682.5C 1140.77,1675.56 1145.61,1670.89 1152.5,1668.5 Z"/></g>
<g><path style="opacity:1" fill="#16a0dc" d="M 1212.5,1668.5 C 1219.17,1668.33 1225.84,1668.5 1232.5,1669C 1239.67,1670.83 1244.17,1675.33 1246,1682.5C 1246.82,1696.74 1246.66,1710.91 1245.5,1725C 1242.9,1725.77 1240.4,1725.6 1238,1724.5C 1237.67,1710.83 1237.33,1697.17 1237,1683.5C 1233.57,1677.96 1228.57,1675.62 1222,1676.5C 1215.77,1675.73 1211.11,1678.06 1208,1683.5C 1207.67,1697.17 1207.33,1710.83 1207,1724.5C 1204.33,1725.83 1201.67,1725.83 1199,1724.5C 1198.33,1711.17 1198.33,1697.83 1199,1684.5C 1200.85,1676.83 1205.35,1671.49 1212.5,1668.5 Z"/></g>
<g><path style="opacity:1" fill="#1ca0dc" d="M 1377.5,1668.5 C 1384.84,1668.33 1392.17,1668.5 1399.5,1669C 1406.81,1670.32 1411.65,1674.48 1414,1681.5C 1414.67,1692.17 1414.67,1702.83 1414,1713.5C 1412.17,1719.33 1408.33,1723.17 1402.5,1725C 1392.38,1727.79 1382.71,1726.79 1373.5,1722C 1366.99,1713.62 1366.99,1705.29 1373.5,1697C 1376.62,1695.11 1379.95,1693.77 1383.5,1693C 1390.83,1692.5 1398.16,1692.33 1405.5,1692.5C 1405.67,1688.82 1405.5,1685.15 1405,1681.5C 1400.29,1677.06 1394.62,1675.06 1388,1675.5C 1383.71,1675.65 1379.54,1676.15 1375.5,1677C 1373.78,1673.46 1374.44,1670.63 1377.5,1668.5 Z"/></g>
<g><path style="opacity:1" fill="#1aa0dc" d="M 1439.5,1668.5 C 1446.17,1668.33 1452.84,1668.5 1459.5,1669C 1466.67,1670.83 1471.17,1675.33 1473,1682.5C 1473.82,1696.74 1473.66,1710.91 1472.5,1725C 1469.9,1725.77 1467.4,1725.6 1465,1724.5C 1464.67,1710.83 1464.33,1697.17 1464,1683.5C 1460.85,1678.26 1456.18,1675.92 1450,1676.5C 1442.96,1675.61 1437.96,1678.27 1435,1684.5C 1434.67,1697.83 1434.33,1711.17 1434,1724.5C 1431.33,1725.83 1428.67,1725.83 1426,1724.5C 1425.33,1710.83 1425.33,1697.17 1426,1683.5C 1428.26,1676.41 1432.76,1671.41 1439.5,1668.5 Z"/></g>
<g><path style="opacity:1" fill="#179fdb" d="M 1592.5,1668.5 C 1599.91,1668.15 1607.24,1668.65 1614.5,1670C 1619.41,1671.78 1623.08,1674.95 1625.5,1679.5C 1627.98,1676.72 1628.98,1673.38 1628.5,1669.5C 1630.83,1669.5 1633.17,1669.5 1635.5,1669.5C 1636.79,1676.92 1634.29,1682.59 1628,1686.5C 1627.67,1693.17 1627.33,1699.83 1627,1706.5C 1624.73,1720.9 1616.23,1727.57 1601.5,1726.5C 1589.91,1727.14 1582.08,1722.14 1578,1711.5C 1577.33,1701.83 1577.33,1692.17 1578,1682.5C 1580.77,1675.56 1585.61,1670.89 1592.5,1668.5 Z"/></g>
<g><path style="opacity:1" fill="#19a0dc" d="M 1652.5,1668.5 C 1658.84,1668.33 1665.18,1668.5 1671.5,1669C 1679.23,1670.4 1684.06,1674.9 1686,1682.5C 1686.82,1696.74 1686.66,1710.91 1685.5,1725C 1682.9,1725.77 1680.4,1725.6 1678,1724.5C 1677.67,1710.83 1677.33,1697.17 1677,1683.5C 1673.85,1678.26 1669.18,1675.92 1663,1676.5C 1655.96,1675.61 1650.96,1678.27 1648,1684.5C 1647.67,1697.83 1647.33,1711.17 1647,1724.5C 1644.33,1725.83 1641.67,1725.83 1639,1724.5C 1638.33,1710.83 1638.33,1697.17 1639,1683.5C 1641.26,1676.41 1645.76,1671.41 1652.5,1668.5 Z"/></g>
<g><path style="opacity:1" fill="#1ba1dc" d="M 619.5,1669.5 C 622.167,1669.5 624.833,1669.5 627.5,1669.5C 627.333,1682.84 627.5,1696.17 628,1709.5C 630.346,1716.32 635.18,1719.32 642.5,1718.5C 647.707,1718.64 652.207,1716.98 656,1713.5C 657.282,1699.23 657.949,1684.9 658,1670.5C 660.667,1669.17 663.333,1669.17 666,1670.5C 666.949,1685.24 666.616,1699.9 665,1714.5C 660.192,1723.74 652.526,1727.74 642,1726.5C 631.381,1727.52 624.047,1723.18 620,1713.5C 618.217,1698.81 618.05,1684.15 619.5,1669.5 Z"/></g>
<g><path style="opacity:1" fill="#039dda" d="M 1348.5,1669.5 C 1351.17,1669.5 1353.83,1669.5 1356.5,1669.5C 1356.67,1687.84 1356.5,1706.17 1356,1724.5C 1353.67,1725.83 1351.33,1725.83 1349,1724.5C 1348.5,1706.17 1348.33,1687.84 1348.5,1669.5 Z"/></g>
<g><path style="opacity:1" fill="#fbfdfe" d="M 1003.5,1676.5 C 1008.51,1676.33 1013.51,1676.5 1018.5,1677C 1024.25,1678.65 1026.91,1682.48 1026.5,1688.5C 1027.06,1695.77 1023.73,1699.94 1016.5,1701C 1001.67,1703.5 995.5,1697.33 998,1682.5C 999.36,1679.98 1001.19,1677.98 1003.5,1676.5 Z"/></g>
<g><path style="opacity:1" fill="#fbfdfe" d="M 1303.5,1676.5 C 1308.51,1676.33 1313.51,1676.5 1318.5,1677C 1325.93,1680.04 1328.43,1685.54 1326,1693.5C 1324.76,1697.74 1321.92,1700.24 1317.5,1701C 1302.17,1704 1295.67,1697.84 1298,1682.5C 1299.36,1679.98 1301.19,1677.98 1303.5,1676.5 Z"/></g>
<g><path style="opacity:1" fill="#fcfefe" d="M 497.5,1676.5 C 503.245,1676.21 508.912,1676.71 514.5,1678C 517.333,1679.5 519.5,1681.67 521,1684.5C 521.667,1692.17 521.667,1699.83 521,1707.5C 520.728,1712.44 518.228,1715.6 513.5,1717C 504.924,1720.2 497.424,1718.7 491,1712.5C 489.416,1703.24 489.083,1693.91 490,1684.5C 491.52,1680.84 494.02,1678.18 497.5,1676.5 Z"/></g>
<g><path style="opacity:1" fill="#fdfefe" d="M 694.5,1676.5 C 699.511,1676.33 704.511,1676.5 709.5,1677C 713.598,1678.1 716.431,1680.6 718,1684.5C 718.667,1692.83 718.667,1701.17 718,1709.5C 717.117,1712.1 715.617,1714.27 713.5,1716C 706.916,1717.54 700.249,1717.88 693.5,1717C 690.272,1715.44 688.105,1712.94 687,1709.5C 686.333,1701.17 686.333,1692.83 687,1684.5C 689.028,1681.31 691.528,1678.64 694.5,1676.5 Z"/></g>
<g><path style="opacity:1" fill="#fcfdfe" d="M 884.5,1676.5 C 889.511,1676.33 894.511,1676.5 899.5,1677C 903.275,1678.44 906.108,1680.94 908,1684.5C 908.667,1692.83 908.667,1701.17 908,1709.5C 906.402,1714.1 903.235,1716.93 898.5,1718C 892.574,1719.11 886.908,1718.44 881.5,1716C 879.383,1714.27 877.883,1712.1 877,1709.5C 876.333,1701.17 876.333,1692.83 877,1684.5C 878.69,1680.98 881.19,1678.31 884.5,1676.5 Z"/></g>
<g><path style="opacity:1" fill="#fbfdfe" d="M 1094.5,1676.5 C 1100.73,1675.94 1106.73,1676.77 1112.5,1679C 1113.79,1680.41 1114.95,1681.91 1116,1683.5C 1116.67,1692.5 1116.67,1701.5 1116,1710.5C 1114.01,1714.49 1110.84,1716.99 1106.5,1718C 1099.78,1719.34 1093.61,1718.17 1088,1714.5C 1086.72,1712.28 1085.72,1709.95 1085,1707.5C 1084.33,1700.17 1084.33,1692.83 1085,1685.5C 1086.78,1680.89 1089.94,1677.89 1094.5,1676.5 Z"/></g>
<g><path style="opacity:1" fill="#fafdfe" d="M 1155.5,1676.5 C 1160.93,1676.16 1166.26,1676.66 1171.5,1678C 1174.73,1679.56 1176.9,1682.06 1178,1685.5C 1178.87,1693.9 1178.54,1702.23 1177,1710.5C 1175.32,1714.77 1172.15,1717.27 1167.5,1718C 1157.11,1720.72 1149.95,1717.22 1146,1707.5C 1145.33,1700.5 1145.33,1693.5 1146,1686.5C 1147.35,1681.32 1150.52,1677.99 1155.5,1676.5 Z"/></g>
<g><path style="opacity:1" fill="#fafdfe" d="M 1594.5,1676.5 C 1600.24,1676.21 1605.91,1676.71 1611.5,1678C 1614,1679.17 1615.83,1681 1617,1683.5C 1618.57,1691.42 1618.9,1699.42 1618,1707.5C 1617.27,1712.15 1614.77,1715.32 1610.5,1717C 1593.22,1721.88 1584.88,1715.38 1585.5,1697.5C 1585.52,1692.78 1586.02,1688.11 1587,1683.5C 1588.74,1680.25 1591.24,1677.92 1594.5,1676.5 Z"/></g>
<g><path style="opacity:1" fill="#f9fcfe" d="M 1384.5,1699.5 C 1391.5,1699.5 1398.5,1699.5 1405.5,1699.5C 1408.72,1712.65 1403.72,1718.98 1390.5,1718.5C 1381.01,1719.18 1376.84,1714.84 1378,1705.5C 1379.87,1703.15 1382.04,1701.15 1384.5,1699.5 Z"/></g>
<g><path style="opacity:1" fill="#f9fcfe" d="M 999.5,1724.5 C 1007.17,1724.33 1014.84,1724.5 1022.5,1725C 1028.57,1727.9 1030.07,1732.4 1027,1738.5C 1024.66,1740.77 1021.82,1741.94 1018.5,1742C 1012.08,1742.87 1005.75,1742.54 999.5,1741C 994.213,1735.47 994.213,1729.97 999.5,1724.5 Z"/></g>
<g><path style="opacity:1" fill="#fafdfe" d="M 1299.5,1724.5 C 1306.51,1724.33 1313.51,1724.5 1320.5,1725C 1325.38,1725.55 1327.72,1728.21 1327.5,1733C 1328,1736.67 1326.67,1739.33 1323.5,1741C 1315.45,1742.84 1307.45,1742.84 1299.5,1741C 1294.19,1735.43 1294.19,1729.93 1299.5,1724.5 Z"/></g>
<g><path style="opacity:1" fill="#21a1dc" d="M 700.5,1734.5 C 706.326,1734.16 708.826,1736.82 708,1742.5C 705.078,1747.23 701.745,1747.57 698,1743.5C 696.927,1739.9 697.76,1736.9 700.5,1734.5 Z"/></g>
</svg>
